<?xml version="1.0" encoding="UTF-8" standalone="no"?>
<!-- Created with Inkscape (http://www.inkscape.org/) -->

<svg
   width="100mm"
   height="100mm"
   viewBox="0 0 100 100"
   version="1.1"
   id="svg6115"
   inkscape:version="1.2.2 (732a01da63, 2022-12-09, custom)"
   sodipodi:docname="bg.svg"
   xmlns:inkscape="http://www.inkscape.org/namespaces/inkscape"
   xmlns:sodipodi="http://sodipodi.sourceforge.net/DTD/sodipodi-0.dtd"
   xmlns="http://www.w3.org/2000/svg"
   xmlns:svg="http://www.w3.org/2000/svg">
  <sodipodi:namedview
     id="namedview6117"
     pagecolor="#ffffff"
     bordercolor="#666666"
     borderopacity="1.0"
     inkscape:showpageshadow="2"
     inkscape:pageopacity="0.0"
     inkscape:pagecheckerboard="0"
     inkscape:deskcolor="#d1d1d1"
     inkscape:document-units="mm"
     showgrid="false"
     inkscape:zoom="1.829812"
     inkscape:cx="197.28803"
     inkscape:cy="199.20079"
     inkscape:window-width="2486"
     inkscape:window-height="1376"
     inkscape:window-x="74"
     inkscape:window-y="27"
     inkscape:window-maximized="1"
     inkscape:current-layer="layer1">
    <inkscape:grid
       type="xygrid"
       id="grid6119" />
  </sodipodi:namedview>
  <defs
     id="defs6112" />
  <g
     inkscape:label="Layer 1"
     inkscape:groupmode="layer"
     id="layer1">
    <path
       id="path6694"
       style="fill:#d700d7;fill-opacity:1;stroke-width:2.62527;stroke-linecap:round;stroke-linejoin:round"
       d="m 0.01474591,-5.1278663 c 0,0 3.77450289,4.0582815 6.26179899,4.0582815 2.4872961,0 3.7745031,-4.0582815 6.2617991,-4.0582815 2.487296,0 3.774503,4.0582815 6.261799,4.0582815 2.487296,0 3.774503,-4.0582815 6.261799,-4.0582815 2.487296,0 3.774503,4.0582815 6.261799,4.0582815 2.487296,0 3.774503,-4.0582815 6.261799,-4.0582815 2.487296,0 3.774503,4.0582815 6.261799,4.0582815 2.487296,0 3.774503,-4.0582815 6.261799,-4.0582815 2.487296,0 3.774503,4.0582815 6.261799,4.0582815 2.487296,0 3.774503,-4.0582815 6.261799,-4.0582815 2.487296,0 3.774503,4.0582815 6.261799,4.0582815 2.487296,0 3.774503,-4.0582815 6.261799,-4.0582815 2.487296,0 3.774503,4.0582815 6.261799,4.0582815 2.487296,0 3.774503,-4.0582815 6.261799,-4.0582815 2.487296,0 3.774503,4.0582815 6.261799,4.0582815 2.487296,0 6.261799,-4.0582815 6.261799,-4.0582815 V 95.070197 H 0.01474591 Z"
       sodipodi:nodetypes="cssssssssssssssscccc" />
    <path
       id="path6692"
       style="fill:#cc00cc;fill-opacity:1;stroke-width:2.62527;stroke-linecap:round;stroke-linejoin:round"
       d="m 0.01474591,3.5975161 c 0,0 3.77450289,4.058281 6.26179899,4.058281 2.4872961,0 3.7745031,-4.058281 6.2617991,-4.058281 2.487296,0 3.774503,4.058281 6.261799,4.058281 2.487296,0 3.774503,-4.058281 6.261799,-4.058281 2.487296,0 3.774503,4.058281 6.261799,4.058281 2.487296,0 3.774503,-4.058281 6.261799,-4.058281 2.487296,0 3.774503,4.058281 6.261799,4.058281 2.487296,0 3.774503,-4.058281 6.261799,-4.058281 2.487296,0 3.774503,4.058281 6.261799,4.058281 2.487296,0 3.774503,-4.058281 6.261799,-4.058281 2.487296,0 3.774503,4.058281 6.261799,4.058281 2.487296,0 3.774503,-4.058281 6.261799,-4.058281 2.487296,0 3.774503,4.058281 6.261799,4.058281 2.487296,0 3.774503,-4.058281 6.261799,-4.058281 2.487296,0 3.774503,4.058281 6.261799,4.058281 2.487296,0 6.261799,-4.058281 6.261799,-4.058281 V 103.79557 H 0.01474591 Z"
       sodipodi:nodetypes="cssssssssssssssscccc" />
    <path
       id="path6690"
       style="fill:#c000c0;fill-opacity:1;stroke-width:2.62527;stroke-linecap:round;stroke-linejoin:round"
       d="m 0.01474591,10.067629 c 0,0 3.77450289,4.058281 6.26179899,4.058281 2.4872961,0 3.7745031,-4.058281 6.2617991,-4.058281 2.487296,0 3.774503,4.058281 6.261799,4.058281 2.487296,0 3.774503,-4.058281 6.261799,-4.058281 2.487296,0 3.774503,4.058281 6.261799,4.058281 2.487296,0 3.774503,-4.058281 6.261799,-4.058281 2.487296,0 3.774503,4.058281 6.261799,4.058281 2.487296,0 3.774503,-4.058281 6.261799,-4.058281 2.487296,0 3.774503,4.058281 6.261799,4.058281 2.487296,0 3.774503,-4.058281 6.261799,-4.058281 2.487296,0 3.774503,4.058281 6.261799,4.058281 2.487296,0 3.774503,-4.058281 6.261799,-4.058281 2.487296,0 3.774503,4.058281 6.261799,4.058281 2.487296,0 3.774503,-4.058281 6.261799,-4.058281 2.487296,0 3.774503,4.058281 6.261799,4.058281 2.487296,0 6.261799,-4.058281 6.261799,-4.058281 V 110.26569 H 0.01474591 Z"
       sodipodi:nodetypes="cssssssssssssssscccc" />
    <path
       id="path6688"
       style="fill:#b800b8;fill-opacity:1;stroke-width:2.62527;stroke-linecap:round;stroke-linejoin:round"
       d="m 0.01474591,17.453963 c 0,0 3.77450289,4.058281 6.26179899,4.058281 2.4872961,0 3.7745031,-4.058281 6.2617991,-4.058281 2.487296,0 3.774503,4.058281 6.261799,4.058281 2.487296,0 3.774503,-4.058281 6.261799,-4.058281 2.487296,0 3.774503,4.058281 6.261799,4.058281 2.487296,0 3.774503,-4.058281 6.261799,-4.058281 2.487296,0 3.774503,4.058281 6.261799,4.058281 2.487296,0 3.774503,-4.058281 6.261799,-4.058281 2.487296,0 3.774503,4.058281 6.261799,4.058281 2.487296,0 3.774503,-4.058281 6.261799,-4.058281 2.487296,0 3.774503,4.058281 6.261799,4.058281 2.487296,0 3.774503,-4.058281 6.261799,-4.058281 2.487296,0 3.774503,4.058281 6.261799,4.058281 2.487296,0 3.774503,-4.058281 6.261799,-4.058281 2.487296,0 3.774503,4.058281 6.261799,4.058281 2.487296,0 6.261799,-4.058281 6.261799,-4.058281 V 117.65203 H 0.01474591 Z"
       sodipodi:nodetypes="cssssssssssssssscccc" />
    <path
       id="path6686"
       style="fill:#a500a5;fill-opacity:1;stroke-width:2.62527;stroke-linecap:round;stroke-linejoin:round"
       d="m 0.01474591,25.193008 c 0,0 3.77450289,4.058281 6.26179899,4.058281 2.4872961,0 3.7745031,-4.058281 6.2617991,-4.058281 2.487296,0 3.774503,4.058281 6.261799,4.058281 2.487296,0 3.774503,-4.058281 6.261799,-4.058281 2.487296,0 3.774503,4.058281 6.261799,4.058281 2.487296,0 3.774503,-4.058281 6.261799,-4.058281 2.487296,0 3.774503,4.058281 6.261799,4.058281 2.487296,0 3.774503,-4.058281 6.261799,-4.058281 2.487296,0 3.774503,4.058281 6.261799,4.058281 2.487296,0 3.774503,-4.058281 6.261799,-4.058281 2.487296,0 3.774503,4.058281 6.261799,4.058281 2.487296,0 3.774503,-4.058281 6.261799,-4.058281 2.487296,0 3.774503,4.058281 6.261799,4.058281 2.487296,0 3.774503,-4.058281 6.261799,-4.058281 2.487296,0 3.774503,4.058281 6.261799,4.058281 2.487296,0 6.261799,-4.058281 6.261799,-4.058281 V 125.39106 H 0.01474591 Z"
       sodipodi:nodetypes="cssssssssssssssscccc" />
    <path
       id="path6684"
       style="fill:#9b009b;fill-opacity:1;stroke-width:2.62527;stroke-linecap:round;stroke-linejoin:round"
       d="m 0.01474591,33.193083 c 0,0 3.77450289,4.058281 6.26179899,4.058281 2.4872961,0 3.7745031,-4.058281 6.2617991,-4.058281 2.487296,0 3.774503,4.058281 6.261799,4.058281 2.487296,0 3.774503,-4.058281 6.261799,-4.058281 2.487296,0 3.774503,4.058281 6.261799,4.058281 2.487296,0 3.774503,-4.058281 6.261799,-4.058281 2.487296,0 3.774503,4.058281 6.261799,4.058281 2.487296,0 3.774503,-4.058281 6.261799,-4.058281 2.487296,0 3.774503,4.058281 6.261799,4.058281 2.487296,0 3.774503,-4.058281 6.261799,-4.058281 2.487296,0 3.774503,4.058281 6.261799,4.058281 2.487296,0 3.774503,-4.058281 6.261799,-4.058281 2.487296,0 3.774503,4.058281 6.261799,4.058281 2.487296,0 3.774503,-4.058281 6.261799,-4.058281 2.487296,0 3.774503,4.058281 6.261799,4.058281 2.487296,0 6.261799,-4.058281 6.261799,-4.058281 V 133.39114 H 0.01474591 Z"
       sodipodi:nodetypes="cssssssssssssssscccc" />
    <path
       id="path6682"
       style="fill:#8f008f;fill-opacity:1;stroke-width:2.62527;stroke-linecap:round;stroke-linejoin:round"
       d="m 0.01474591,40.244906 c 0,0 3.77450289,4.058281 6.26179899,4.058281 2.4872961,0 3.7745031,-4.058281 6.2617991,-4.058281 2.487296,0 3.774503,4.058281 6.261799,4.058281 2.487296,0 3.774503,-4.058281 6.261799,-4.058281 2.487296,0 3.774503,4.058281 6.261799,4.058281 2.487296,0 3.774503,-4.058281 6.261799,-4.058281 2.487296,0 3.774503,4.058281 6.261799,4.058281 2.487296,0 3.774503,-4.058281 6.261799,-4.058281 2.487296,0 3.774503,4.058281 6.261799,4.058281 2.487296,0 3.774503,-4.058281 6.261799,-4.058281 2.487296,0 3.774503,4.058281 6.261799,4.058281 2.487296,0 3.774503,-4.058281 6.261799,-4.058281 2.487296,0 3.774503,4.058281 6.261799,4.058281 2.487296,0 3.774503,-4.058281 6.261799,-4.058281 2.487296,0 3.774503,4.058281 6.261799,4.058281 2.487296,0 6.261799,-4.058281 6.261799,-4.058281 V 140.44296 H 0.01474591 Z"
       sodipodi:nodetypes="cssssssssssssssscccc" />
    <path
       id="rect6121"
       style="fill:#800080;stroke-width:2.62527;stroke-linecap:round;stroke-linejoin:round"
       d="m 0.01474591,47.446004 c 0,0 3.77450289,4.058281 6.26179899,4.058281 2.4872961,0 3.7745031,-4.058281 6.2617991,-4.058281 2.487296,0 3.774503,4.058281 6.261799,4.058281 2.487296,0 3.774503,-4.058281 6.261799,-4.058281 2.487296,0 3.774503,4.058281 6.261799,4.058281 2.487296,0 3.774503,-4.058281 6.261799,-4.058281 2.487296,0 3.774503,4.058281 6.261799,4.058281 2.487296,0 3.774503,-4.058281 6.261799,-4.058281 2.487296,0 3.774503,4.058281 6.261799,4.058281 2.487296,0 3.774503,-4.058281 6.261799,-4.058281 2.487296,0 3.774503,4.058281 6.261799,4.058281 2.487296,0 3.774503,-4.058281 6.261799,-4.058281 2.487296,0 3.774503,4.058281 6.261799,4.058281 2.487296,0 3.774503,-4.058281 6.261799,-4.058281 2.487296,0 3.774503,4.058281 6.261799,4.058281 2.487296,0 6.261799,-4.058281 6.261799,-4.058281 V 147.64407 H 0.01474591 Z"
       sodipodi:nodetypes="cssssssssssssssscccc" />
    <path
       id="path6178"
       style="fill:#780878;fill-opacity:1;stroke-width:2.62527;stroke-linecap:round;stroke-linejoin:round"
       d="m 0.01474591,53.651658 c 0,0 3.77450289,4.058282 6.26179899,4.058282 2.4872961,0 3.7745031,-4.058282 6.2617991,-4.058282 2.487296,0 3.774503,4.058282 6.261799,4.058282 2.487296,0 3.774503,-4.058282 6.261799,-4.058282 2.487296,0 3.774503,4.058282 6.261799,4.058282 2.487296,0 3.774503,-4.058282 6.261799,-4.058282 2.487296,0 3.774503,4.058282 6.261799,4.058282 2.487296,0 3.774503,-4.058282 6.261799,-4.058282 2.487296,0 3.774503,4.058282 6.261799,4.058282 2.487296,0 3.774503,-4.058282 6.261799,-4.058282 2.487296,0 3.774503,4.058282 6.261799,4.058282 2.487296,0 3.774503,-4.058282 6.261799,-4.058282 2.487296,0 3.774503,4.058282 6.261799,4.058282 2.487296,0 3.774503,-4.058282 6.261799,-4.058282 2.487296,0 3.774503,4.058282 6.261799,4.058282 2.487296,0 6.261799,-4.058282 6.261799,-4.058282 V 153.84972 H 0.01474591 Z"
       sodipodi:nodetypes="cssssssssssssssscccc" />
    <path
       id="path6660"
       style="fill:#6e126e;fill-opacity:1;stroke-width:2.62527;stroke-linecap:round;stroke-linejoin:round"
       d="m 0.01474591,60.831787 c 0,0 3.77450289,4.058281 6.26179899,4.058281 2.4872961,0 3.7745031,-4.058281 6.2617991,-4.058281 2.487296,0 3.774503,4.058281 6.261799,4.058281 2.487296,0 3.774503,-4.058281 6.261799,-4.058281 2.487296,0 3.774503,4.058281 6.261799,4.058281 2.487296,0 3.774503,-4.058281 6.261799,-4.058281 2.487296,0 3.774503,4.058281 6.261799,4.058281 2.487296,0 3.774503,-4.058281 6.261799,-4.058281 2.487296,0 3.774503,4.058281 6.261799,4.058281 2.487296,0 3.774503,-4.058281 6.261799,-4.058281 2.487296,0 3.774503,4.058281 6.261799,4.058281 2.487296,0 3.774503,-4.058281 6.261799,-4.058281 2.487296,0 3.774503,4.058281 6.261799,4.058281 2.487296,0 3.774503,-4.058281 6.261799,-4.058281 2.487296,0 3.774503,4.058281 6.261799,4.058281 2.487296,0 6.261799,-4.058281 6.261799,-4.058281 V 161.02985 H 0.01474591 Z"
       sodipodi:nodetypes="cssssssssssssssscccc" />
    <path
       id="path6662"
       style="fill:#691769;fill-opacity:1;stroke-width:2.62527;stroke-linecap:round;stroke-linejoin:round"
       d="m 0.01474591,67.639679 c 0,0 3.77450289,4.058281 6.26179899,4.058281 2.4872961,0 3.7745031,-4.058281 6.2617991,-4.058281 2.487296,0 3.774503,4.058281 6.261799,4.058281 2.487296,0 3.774503,-4.058281 6.261799,-4.058281 2.487296,0 3.774503,4.058281 6.261799,4.058281 2.487296,0 3.774503,-4.058281 6.261799,-4.058281 2.487296,0 3.774503,4.058281 6.261799,4.058281 2.487296,0 3.774503,-4.058281 6.261799,-4.058281 2.487296,0 3.774503,4.058281 6.261799,4.058281 2.487296,0 3.774503,-4.058281 6.261799,-4.058281 2.487296,0 3.774503,4.058281 6.261799,4.058281 2.487296,0 3.774503,-4.058281 6.261799,-4.058281 2.487296,0 3.774503,4.058281 6.261799,4.058281 2.487296,0 3.774503,-4.058281 6.261799,-4.058281 2.487296,0 3.774503,4.058281 6.261799,4.058281 2.487296,0 6.261799,-4.058281 6.261799,-4.058281 V 167.83774 H 0.01474591 Z"
       sodipodi:nodetypes="cssssssssssssssscccc" />
    <path
       id="path6664"
       style="fill:#651b65;fill-opacity:1;stroke-width:2.62527;stroke-linecap:round;stroke-linejoin:round"
       d="m 0.01474591,74.707177 c 0,0 3.77450289,4.058281 6.26179899,4.058281 2.4872961,0 3.7745031,-4.058281 6.2617991,-4.058281 2.487296,0 3.774503,4.058281 6.261799,4.058281 2.487296,0 3.774503,-4.058281 6.261799,-4.058281 2.487296,0 3.774503,4.058281 6.261799,4.058281 2.487296,0 3.774503,-4.058281 6.261799,-4.058281 2.487296,0 3.774503,4.058281 6.261799,4.058281 2.487296,0 3.774503,-4.058281 6.261799,-4.058281 2.487296,0 3.774503,4.058281 6.261799,4.058281 2.487296,0 3.774503,-4.058281 6.261799,-4.058281 2.487296,0 3.774503,4.058281 6.261799,4.058281 2.487296,0 3.774503,-4.058281 6.261799,-4.058281 2.487296,0 3.774503,4.058281 6.261799,4.058281 2.487296,0 3.774503,-4.058281 6.261799,-4.058281 2.487296,0 3.774503,4.058281 6.261799,4.058281 2.487296,0 6.261799,-4.058281 6.261799,-4.058281 V 174.90524 H 0.01474591 Z"
       sodipodi:nodetypes="cssssssssssssssscccc" />
    <path
       id="path6666"
       style="fill:#611f61;fill-opacity:1;stroke-width:2.62527;stroke-linecap:round;stroke-linejoin:round"
       d="m 0.01474591,81.055813 c 0,0 3.77450289,4.058281 6.26179899,4.058281 2.4872961,0 3.7745031,-4.058281 6.2617991,-4.058281 2.487296,0 3.774503,4.058281 6.261799,4.058281 2.487296,0 3.774503,-4.058281 6.261799,-4.058281 2.487296,0 3.774503,4.058281 6.261799,4.058281 2.487296,0 3.774503,-4.058281 6.261799,-4.058281 2.487296,0 3.774503,4.058281 6.261799,4.058281 2.487296,0 3.774503,-4.058281 6.261799,-4.058281 2.487296,0 3.774503,4.058281 6.261799,4.058281 2.487296,0 3.774503,-4.058281 6.261799,-4.058281 2.487296,0 3.774503,4.058281 6.261799,4.058281 2.487296,0 3.774503,-4.058281 6.261799,-4.058281 2.487296,0 3.774503,4.058281 6.261799,4.058281 2.487296,0 3.774503,-4.058281 6.261799,-4.058281 2.487296,0 3.774503,4.058281 6.261799,4.058281 2.487296,0 6.261799,-4.058281 6.261799,-4.058281 V 181.25388 H 0.01474591 Z"
       sodipodi:nodetypes="cssssssssssssssscccc" />
    <path
       id="path6670"
       style="fill:#5d235d;fill-opacity:1;stroke-width:2.62527;stroke-linecap:round;stroke-linejoin:round"
       d="m 0.01474591,86.366693 c 0,0 3.77450289,4.058281 6.26179899,4.058281 2.4872961,0 3.7745031,-4.058281 6.2617991,-4.058281 2.487296,0 3.774503,4.058281 6.261799,4.058281 2.487296,0 3.774503,-4.058281 6.261799,-4.058281 2.487296,0 3.774503,4.058281 6.261799,4.058281 2.487296,0 3.774503,-4.058281 6.261799,-4.058281 2.487296,0 3.774503,4.058281 6.261799,4.058281 2.487296,0 3.774503,-4.058281 6.261799,-4.058281 2.487296,0 3.774503,4.058281 6.261799,4.058281 2.487296,0 3.774503,-4.058281 6.261799,-4.058281 2.487296,0 3.774503,4.058281 6.261799,4.058281 2.487296,0 3.774503,-4.058281 6.261799,-4.058281 2.487296,0 3.774503,4.058281 6.261799,4.058281 2.487296,0 3.774503,-4.058281 6.261799,-4.058281 2.487296,0 3.774503,4.058281 6.261799,4.058281 2.487296,0 6.261799,-4.058281 6.261799,-4.058281 V 186.56476 H 0.01474591 Z"
       sodipodi:nodetypes="cssssssssssssssscccc" />
    <path
       id="path6672"
       style="fill:#592759;fill-opacity:1;stroke-width:2.62527;stroke-linecap:round;stroke-linejoin:round"
       d="m 0.01474591,91.227774 c 0,0 3.77450289,4.058281 6.26179899,4.058281 2.4872961,0 3.7745031,-4.058281 6.2617991,-4.058281 2.487296,0 3.774503,4.058281 6.261799,4.058281 2.487296,0 3.774503,-4.058281 6.261799,-4.058281 2.487296,0 3.774503,4.058281 6.261799,4.058281 2.487296,0 3.774503,-4.058281 6.261799,-4.058281 2.487296,0 3.774503,4.058281 6.261799,4.058281 2.487296,0 3.774503,-4.058281 6.261799,-4.058281 2.487296,0 3.774503,4.058281 6.261799,4.058281 2.487296,0 3.774503,-4.058281 6.261799,-4.058281 2.487296,0 3.774503,4.058281 6.261799,4.058281 2.487296,0 3.774503,-4.058281 6.261799,-4.058281 2.487296,0 3.774503,4.058281 6.261799,4.058281 2.487296,0 3.774503,-4.058281 6.261799,-4.058281 2.487296,0 3.774503,4.058281 6.261799,4.058281 2.487296,0 6.261799,-4.058281 6.261799,-4.058281 V 191.42584 H 0.01474591 Z"
       sodipodi:nodetypes="cssssssssssssssscccc" />
    <path
       id="path6674"
       style="fill:#562a56;fill-opacity:1;stroke-width:2.62527;stroke-linecap:round;stroke-linejoin:round"
       d="m 0.01474591,96.107321 c 0,0 3.77450289,4.058279 6.26179899,4.058279 2.4872961,0 3.7745031,-4.058279 6.2617991,-4.058279 2.487296,0 3.774503,4.058279 6.261799,4.058279 2.487296,0 3.774503,-4.058279 6.261799,-4.058279 2.487296,0 3.774503,4.058279 6.261799,4.058279 2.487296,0 3.774503,-4.058279 6.261799,-4.058279 2.487296,0 3.774503,4.058279 6.261799,4.058279 2.487296,0 3.774503,-4.058279 6.261799,-4.058279 2.487296,0 3.774503,4.058279 6.261799,4.058279 2.487296,0 3.774503,-4.058279 6.261799,-4.058279 2.487296,0 3.774503,4.058279 6.261799,4.058279 2.487296,0 3.774503,-4.058279 6.261799,-4.058279 2.487296,0 3.774503,4.058279 6.261799,4.058279 2.487296,0 3.774503,-4.058279 6.261799,-4.058279 2.487296,0 3.774503,4.058279 6.261799,4.058279 2.487296,0 6.261799,-4.058279 6.261799,-4.058279 V 196.30539 H 0.01474591 Z"
       sodipodi:nodetypes="cssssssssssssssscccc" />
    <path
       id="path6676"
       style="fill:#532d53;fill-opacity:1;stroke-width:2.62527;stroke-linecap:round;stroke-linejoin:round"
       d="m 0.01474591,101.40022 c 0,0 3.77450289,4.05829 6.26179899,4.05829 2.4872961,0 3.7745031,-4.05829 6.2617991,-4.05829 2.487296,0 3.774503,4.05829 6.261799,4.05829 2.487296,0 3.774503,-4.05829 6.261799,-4.05829 2.487296,0 3.774503,4.05829 6.261799,4.05829 2.487296,0 3.774503,-4.05829 6.261799,-4.05829 2.487296,0 3.774503,4.05829 6.261799,4.05829 2.487296,0 3.774503,-4.05829 6.261799,-4.05829 2.487296,0 3.774503,4.05829 6.261799,4.05829 2.487296,0 3.774503,-4.05829 6.261799,-4.05829 2.487296,0 3.774503,4.05829 6.261799,4.05829 2.487296,0 3.774503,-4.05829 6.261799,-4.05829 2.487296,0 3.774503,4.05829 6.261799,4.05829 2.487296,0 3.774503,-4.05829 6.261799,-4.05829 2.487296,0 3.774503,4.05829 6.261799,4.05829 2.487296,0 6.261799,-4.05829 6.261799,-4.05829 V 201.59829 H 0.01474591 Z"
       sodipodi:nodetypes="cssssssssssssssscccc" />
    <path
       id="path6678"
       style="fill:#503050;fill-opacity:1;stroke-width:2.62527;stroke-linecap:round;stroke-linejoin:round"
       d="m 0.01474591,106.44846 c 0,0 3.77450289,4.05828 6.26179899,4.05828 2.4872961,0 3.7745031,-4.05828 6.2617991,-4.05828 2.487296,0 3.774503,4.05828 6.261799,4.05828 2.487296,0 3.774503,-4.05828 6.261799,-4.05828 2.487296,0 3.774503,4.05828 6.261799,4.05828 2.487296,0 3.774503,-4.05828 6.261799,-4.05828 2.487296,0 3.774503,4.05828 6.261799,4.05828 2.487296,0 3.774503,-4.05828 6.261799,-4.05828 2.487296,0 3.774503,4.05828 6.261799,4.05828 2.487296,0 3.774503,-4.05828 6.261799,-4.05828 2.487296,0 3.774503,4.05828 6.261799,4.05828 2.487296,0 3.774503,-4.05828 6.261799,-4.05828 2.487296,0 3.774503,4.05828 6.261799,4.05828 2.487296,0 3.774503,-4.05828 6.261799,-4.05828 2.487296,0 3.774503,4.05828 6.261799,4.05828 2.487296,0 6.261799,-4.05828 6.261799,-4.05828 V 206.64652 H 0.01474591 Z"
       sodipodi:nodetypes="cssssssssssssssscccc" />
    <path
       id="path6680"
       style="fill:#503050;fill-opacity:1;stroke-width:2.62527;stroke-linecap:round;stroke-linejoin:round"
       d="m 0.01474591,110.68085 c 0,0 3.77450289,4.05827 6.26179899,4.05827 2.4872961,0 3.7745031,-4.05827 6.2617991,-4.05827 2.487296,0 3.774503,4.05827 6.261799,4.05827 2.487296,0 3.774503,-4.05827 6.261799,-4.05827 2.487296,0 3.774503,4.05827 6.261799,4.05827 2.487296,0 3.774503,-4.05827 6.261799,-4.05827 2.487296,0 3.774503,4.05827 6.261799,4.05827 2.487296,0 3.774503,-4.05827 6.261799,-4.05827 2.487296,0 3.774503,4.05827 6.261799,4.05827 2.487296,0 3.774503,-4.05827 6.261799,-4.05827 2.487296,0 3.774503,4.05827 6.261799,4.05827 2.487296,0 3.774503,-4.05827 6.261799,-4.05827 2.487296,0 3.774503,4.05827 6.261799,4.05827 2.487296,0 3.774503,-4.05827 6.261799,-4.05827 2.487296,0 3.774503,4.05827 6.261799,4.05827 2.487296,0 6.261799,-4.05827 6.261799,-4.05827 V 210.87891 H 0.01474591 Z"
       sodipodi:nodetypes="cssssssssssssssscccc" />
  </g>
</svg>
