<?xml version="1.0" encoding="UTF-8" standalone="no"?>
<!-- Created with Inkscape (http://www.inkscape.org/) -->

<svg
   width="1024mm"
   height="500mm"
   viewBox="0 0 1024 500"
   version="1.1"
   id="svg2489"
   inkscape:version="1.2.2 (732a01da63, 2022-12-09, custom)"
   sodipodi:docname="featured.svg"
   inkscape:export-filename="../a91e48da/logo512.png"
   inkscape:export-xdpi="545.50336"
   inkscape:export-ydpi="545.50336"
   xmlns:inkscape="http://www.inkscape.org/namespaces/inkscape"
   xmlns:sodipodi="http://sodipodi.sourceforge.net/DTD/sodipodi-0.dtd"
   xmlns="http://www.w3.org/2000/svg"
   xmlns:svg="http://www.w3.org/2000/svg">
  <sodipodi:namedview
     id="namedview2491"
     pagecolor="#ffffff"
     bordercolor="#666666"
     borderopacity="1.0"
     inkscape:showpageshadow="2"
     inkscape:pageopacity="0.0"
     inkscape:pagecheckerboard="0"
     inkscape:deskcolor="#d1d1d1"
     inkscape:document-units="mm"
     showgrid="false"
     inkscape:zoom="0.08086703"
     inkscape:cx="-160.75773"
     inkscape:cy="2318.6211"
     inkscape:window-width="2486"
     inkscape:window-height="1376"
     inkscape:window-x="74"
     inkscape:window-y="27"
     inkscape:window-maximized="1"
     inkscape:current-layer="layer1">
    <inkscape:grid
       type="xygrid"
       id="grid2506"
       originx="0"
       originy="0" />
  </sodipodi:namedview>
  <defs
     id="defs2486" />
  <g
     inkscape:label="Layer 1"
     inkscape:groupmode="layer"
     id="layer1"
     transform="translate(-8.9946643,-8.3664776)">
    <path
       id="path6694"
       style="fill:#d700d7;fill-opacity:1;stroke-width:16.4569;stroke-linecap:round;stroke-linejoin:round"
       d="m 7.8409827,-13.694595 c 0,0 23.6610013,25.439903 39.2529663,25.439903 15.591964,0 23.661012,-25.439903 39.252977,-25.439903 15.591964,0 23.660984,25.439903 39.252954,25.439903 15.59196,0 23.66102,-25.439903 39.25298,-25.439903 15.59193,0 23.66099,25.439903 39.25295,25.439903 15.59197,0 23.66101,-25.439903 39.25297,-25.439903 15.59196,0 23.66099,25.439903 39.25295,25.439903 15.59197,0 23.66102,-25.439903 39.25295,-25.439903 15.59197,0 23.66102,25.439903 39.25299,25.439903 15.59196,0 23.661,-25.439903 39.25298,-25.439903 15.59196,0 23.66097,25.439903 39.25293,25.439903 15.59198,0 23.66102,-25.439903 39.25299,-25.439903 15.59196,0 23.66101,25.439903 39.25298,25.439903 15.59196,0 23.66099,-25.439903 39.25295,-25.439903 15.59196,0 23.66097,25.439903 39.25295,25.439903 15.59197,0 39.25297,-25.439903 39.25297,-25.439903 V 614.41095 H 7.8409827 Z"
       sodipodi:nodetypes="cssssssssssssssscccc" />
    <path
       id="path6692"
       style="fill:#cc00cc;fill-opacity:1;stroke-width:16.4569;stroke-linecap:round;stroke-linejoin:round"
       d="m 7.8409827,41.001699 c 0,0 23.6610013,25.439904 39.2529663,25.439904 15.591964,0 23.661012,-25.439904 39.252977,-25.439904 15.591964,0 23.660984,25.439904 39.252954,25.439904 15.59196,0 23.66102,-25.439904 39.25298,-25.439904 15.59193,0 23.66099,25.439904 39.25295,25.439904 15.59197,0 23.66101,-25.439904 39.25297,-25.439904 15.59196,0 23.66099,25.439904 39.25295,25.439904 15.59197,0 23.66102,-25.439904 39.25295,-25.439904 15.59197,0 23.66102,25.439904 39.25299,25.439904 15.59196,0 23.661,-25.439904 39.25298,-25.439904 15.59196,0 23.66097,25.439904 39.25293,25.439904 15.59198,0 23.66102,-25.439904 39.25299,-25.439904 15.59196,0 23.66101,25.439904 39.25298,25.439904 15.59196,0 23.66099,-25.439904 39.25295,-25.439904 15.59196,0 23.66097,25.439904 39.25295,25.439904 15.59197,0 39.25297,-25.439904 39.25297,-25.439904 V 669.10721 H 7.8409827 Z"
       sodipodi:nodetypes="cssssssssssssssscccc" />
    <path
       id="path6690"
       style="fill:#c000c0;fill-opacity:1;stroke-width:16.4569;stroke-linecap:round;stroke-linejoin:round"
       d="m 7.8409827,81.560499 c 0,0 23.6610013,25.439901 39.2529663,25.439901 15.591964,0 23.661012,-25.439901 39.252977,-25.439901 15.591964,0 23.660984,25.439901 39.252954,25.439901 15.59196,0 23.66102,-25.439901 39.25298,-25.439901 15.59193,0 23.66099,25.439901 39.25295,25.439901 15.59197,0 23.66101,-25.439901 39.25297,-25.439901 15.59196,0 23.66099,25.439901 39.25295,25.439901 15.59197,0 23.66102,-25.439901 39.25295,-25.439901 15.59197,0 23.66102,25.439901 39.25299,25.439901 15.59196,0 23.661,-25.439901 39.25298,-25.439901 15.59196,0 23.66097,25.439901 39.25293,25.439901 15.59198,0 23.66102,-25.439901 39.25299,-25.439901 15.59196,0 23.66101,25.439901 39.25298,25.439901 15.59196,0 23.66099,-25.439901 39.25295,-25.439901 15.59196,0 23.66097,25.439901 39.25295,25.439901 15.59197,0 39.25297,-25.439901 39.25297,-25.439901 V 709.66604 H 7.8409827 Z"
       sodipodi:nodetypes="cssssssssssssssscccc" />
    <path
       id="path6688"
       style="fill:#b800b8;fill-opacity:1;stroke-width:16.4569;stroke-linecap:round;stroke-linejoin:round"
       d="m 7.8409827,127.86275 c 0,0 23.6610013,25.43988 39.2529663,25.43988 15.591964,0 23.661012,-25.43988 39.252977,-25.43988 15.591964,0 23.660984,25.43988 39.252954,25.43988 15.59196,0 23.66102,-25.43988 39.25298,-25.43988 15.59193,0 23.66099,25.43988 39.25295,25.43988 15.59197,0 23.66101,-25.43988 39.25297,-25.43988 15.59196,0 23.66099,25.43988 39.25295,25.43988 15.59197,0 23.66102,-25.43988 39.25295,-25.43988 15.59197,0 23.66102,25.43988 39.25299,25.43988 15.59196,0 23.661,-25.43988 39.25298,-25.43988 15.59196,0 23.66097,25.43988 39.25293,25.43988 15.59198,0 23.66102,-25.43988 39.25299,-25.43988 15.59196,0 23.66101,25.43988 39.25298,25.43988 15.59196,0 23.66099,-25.43988 39.25295,-25.43988 15.59196,0 23.66097,25.43988 39.25295,25.43988 15.59197,0 39.25297,-25.43988 39.25297,-25.43988 v 628.1056 H 7.8409827 Z"
       sodipodi:nodetypes="cssssssssssssssscccc" />
    <path
       id="path6686"
       style="fill:#a500a5;fill-opacity:1;stroke-width:16.4569;stroke-linecap:round;stroke-linejoin:round"
       d="m 7.8409827,176.37603 c 0,0 23.6610013,25.43991 39.2529663,25.43991 15.591964,0 23.661012,-25.43991 39.252977,-25.43991 15.591964,0 23.660984,25.43991 39.252954,25.43991 15.59196,0 23.66102,-25.43991 39.25298,-25.43991 15.59193,0 23.66099,25.43991 39.25295,25.43991 15.59197,0 23.66101,-25.43991 39.25297,-25.43991 15.59196,0 23.66099,25.43991 39.25295,25.43991 15.59197,0 23.66102,-25.43991 39.25295,-25.43991 15.59197,0 23.66102,25.43991 39.25299,25.43991 15.59196,0 23.661,-25.43991 39.25298,-25.43991 15.59196,0 23.66097,25.43991 39.25293,25.43991 15.59198,0 23.66102,-25.43991 39.25299,-25.43991 15.59196,0 23.66101,25.43991 39.25298,25.43991 15.59196,0 23.66099,-25.43991 39.25295,-25.43991 15.59196,0 23.66097,25.43991 39.25295,25.43991 15.59197,0 39.25297,-25.43991 39.25297,-25.43991 v 628.1055 H 7.8409827 Z"
       sodipodi:nodetypes="cssssssssssssssscccc" />
    <path
       id="path6684"
       style="fill:#9b009b;fill-opacity:1;stroke-width:16.4569;stroke-linecap:round;stroke-linejoin:round"
       d="m 7.8409827,226.52564 c 0,0 23.6610013,25.43989 39.2529663,25.43989 15.591964,0 23.661012,-25.43989 39.252977,-25.43989 15.591964,0 23.660984,25.43989 39.252954,25.43989 15.59196,0 23.66102,-25.43989 39.25298,-25.43989 15.59193,0 23.66099,25.43989 39.25295,25.43989 15.59197,0 23.66101,-25.43989 39.25297,-25.43989 15.59196,0 23.66099,25.43989 39.25295,25.43989 15.59197,0 23.66102,-25.43989 39.25295,-25.43989 15.59197,0 23.66102,25.43989 39.25299,25.43989 15.59196,0 23.661,-25.43989 39.25298,-25.43989 15.59196,0 23.66097,25.43989 39.25293,25.43989 15.59198,0 23.66102,-25.43989 39.25299,-25.43989 15.59196,0 23.66101,25.43989 39.25298,25.43989 15.59196,0 23.66099,-25.43989 39.25295,-25.43989 15.59196,0 23.66097,25.43989 39.25295,25.43989 15.59197,0 39.25297,-25.43989 39.25297,-25.43989 V 854.63115 H 7.8409827 Z"
       sodipodi:nodetypes="cssssssssssssssscccc" />
    <path
       id="path6682"
       style="fill:#8f008f;fill-opacity:1;stroke-width:16.4569;stroke-linecap:round;stroke-linejoin:round"
       d="m 7.8409827,270.73097 c 0,0 23.6610013,25.43991 39.2529663,25.43991 15.591964,0 23.661012,-25.43991 39.252977,-25.43991 15.591964,0 23.660984,25.43991 39.252954,25.43991 15.59196,0 23.66102,-25.43991 39.25298,-25.43991 15.59193,0 23.66099,25.43991 39.25295,25.43991 15.59197,0 23.66101,-25.43991 39.25297,-25.43991 15.59196,0 23.66099,25.43991 39.25295,25.43991 15.59197,0 23.66102,-25.43991 39.25295,-25.43991 15.59197,0 23.66102,25.43991 39.25299,25.43991 15.59196,0 23.661,-25.43991 39.25298,-25.43991 15.59196,0 23.66097,25.43991 39.25293,25.43991 15.59198,0 23.66102,-25.43991 39.25299,-25.43991 15.59196,0 23.66101,25.43991 39.25298,25.43991 15.59196,0 23.66099,-25.43991 39.25295,-25.43991 15.59196,0 23.66097,25.43991 39.25295,25.43991 15.59197,0 39.25297,-25.43991 39.25297,-25.43991 V 898.83644 H 7.8409827 Z"
       sodipodi:nodetypes="cssssssssssssssscccc" />
    <path
       id="rect6121"
       style="fill:#800080;stroke-width:16.4569;stroke-linecap:round;stroke-linejoin:round"
       d="m 7.8409827,315.87205 c 0,0 23.6610013,25.43991 39.2529663,25.43991 15.591964,0 23.661012,-25.43991 39.252977,-25.43991 15.591964,0 23.660984,25.43991 39.252954,25.43991 15.59196,0 23.66102,-25.43991 39.25298,-25.43991 15.59193,0 23.66099,25.43991 39.25295,25.43991 15.59197,0 23.66101,-25.43991 39.25297,-25.43991 15.59196,0 23.66099,25.43991 39.25295,25.43991 15.59197,0 23.66102,-25.43991 39.25295,-25.43991 15.59197,0 23.66102,25.43991 39.25299,25.43991 15.59196,0 23.661,-25.43991 39.25298,-25.43991 15.59196,0 23.66097,25.43991 39.25293,25.43991 15.59198,0 23.66102,-25.43991 39.25299,-25.43991 15.59196,0 23.66101,25.43991 39.25298,25.43991 15.59196,0 23.66099,-25.43991 39.25295,-25.43991 15.59196,0 23.66097,25.43991 39.25295,25.43991 15.59197,0 39.25297,-25.43991 39.25297,-25.43991 V 943.97771 H 7.8409827 Z"
       sodipodi:nodetypes="cssssssssssssssscccc" />
    <path
       id="path6178"
       style="fill:#780878;fill-opacity:1;stroke-width:16.4569;stroke-linecap:round;stroke-linejoin:round"
       d="m 7.8409827,354.77307 c 0,0 23.6610013,25.43991 39.2529663,25.43991 15.591964,0 23.661012,-25.43991 39.252977,-25.43991 15.591964,0 23.660984,25.43991 39.252954,25.43991 15.59196,0 23.66102,-25.43991 39.25298,-25.43991 15.59193,0 23.66099,25.43991 39.25295,25.43991 15.59197,0 23.66101,-25.43991 39.25297,-25.43991 15.59196,0 23.66099,25.43991 39.25295,25.43991 15.59197,0 23.66102,-25.43991 39.25295,-25.43991 15.59197,0 23.66102,25.43991 39.25299,25.43991 15.59196,0 23.661,-25.43991 39.25298,-25.43991 15.59196,0 23.66097,25.43991 39.25293,25.43991 15.59198,0 23.66102,-25.43991 39.25299,-25.43991 15.59196,0 23.66101,25.43991 39.25298,25.43991 15.59196,0 23.66099,-25.43991 39.25295,-25.43991 15.59196,0 23.66097,25.43991 39.25295,25.43991 15.59197,0 39.25297,-25.43991 39.25297,-25.43991 V 982.87856 H 7.8409827 Z"
       sodipodi:nodetypes="cssssssssssssssscccc" />
    <path
       id="path6660"
       style="fill:#6e126e;fill-opacity:1;stroke-width:16.4569;stroke-linecap:round;stroke-linejoin:round"
       d="m 7.8409827,399.78271 c 0,0 23.6610013,25.43991 39.2529663,25.43991 15.591964,0 23.661012,-25.43991 39.252977,-25.43991 15.591964,0 23.660984,25.43991 39.252954,25.43991 15.59196,0 23.66102,-25.43991 39.25298,-25.43991 15.59193,0 23.66099,25.43991 39.25295,25.43991 15.59197,0 23.66101,-25.43991 39.25297,-25.43991 15.59196,0 23.66099,25.43991 39.25295,25.43991 15.59197,0 23.66102,-25.43991 39.25295,-25.43991 15.59197,0 23.66102,25.43991 39.25299,25.43991 15.59196,0 23.661,-25.43991 39.25298,-25.43991 15.59196,0 23.66097,25.43991 39.25293,25.43991 15.59198,0 23.66102,-25.43991 39.25299,-25.43991 15.59196,0 23.66101,25.43991 39.25298,25.43991 15.59196,0 23.66099,-25.43991 39.25295,-25.43991 15.59196,0 23.66097,25.43991 39.25295,25.43991 15.59197,0 39.25297,-25.43991 39.25297,-25.43991 V 1027.8882 H 7.8409827 Z"
       sodipodi:nodetypes="cssssssssssssssscccc" />
    <path
       id="path6662"
       style="fill:#691769;fill-opacity:1;stroke-width:16.4569;stroke-linecap:round;stroke-linejoin:round"
       d="m 7.8409827,442.45895 c 0,0 23.6610013,25.43991 39.2529663,25.43991 15.591964,0 23.661012,-25.43991 39.252977,-25.43991 15.591964,0 23.660984,25.43991 39.252954,25.43991 15.59196,0 23.66102,-25.43991 39.25298,-25.43991 15.59193,0 23.66099,25.43991 39.25295,25.43991 15.59197,0 23.66101,-25.43991 39.25297,-25.43991 15.59196,0 23.66099,25.43991 39.25295,25.43991 15.59197,0 23.66102,-25.43991 39.25295,-25.43991 15.59197,0 23.66102,25.43991 39.25299,25.43991 15.59196,0 23.661,-25.43991 39.25298,-25.43991 15.59196,0 23.66097,25.43991 39.25293,25.43991 15.59198,0 23.66102,-25.43991 39.25299,-25.43991 15.59196,0 23.66101,25.43991 39.25298,25.43991 15.59196,0 23.66099,-25.43991 39.25295,-25.43991 15.59196,0 23.66097,25.43991 39.25295,25.43991 15.59197,0 39.25297,-25.43991 39.25297,-25.43991 V 1070.5644 H 7.8409827 Z"
       sodipodi:nodetypes="cssssssssssssssscccc" />
    <path
       id="path6664"
       style="fill:#651b65;fill-opacity:1;stroke-width:16.4569;stroke-linecap:round;stroke-linejoin:round"
       d="m 7.8409827,486.76253 c 0,0 23.6610013,25.43991 39.2529663,25.43991 15.591964,0 23.661012,-25.43991 39.252977,-25.43991 15.591964,0 23.660984,25.43991 39.252954,25.43991 15.59196,0 23.66102,-25.43991 39.25298,-25.43991 15.59193,0 23.66099,25.43991 39.25295,25.43991 15.59197,0 23.66101,-25.43991 39.25297,-25.43991 15.59196,0 23.66099,25.43991 39.25295,25.43991 15.59197,0 23.66102,-25.43991 39.25295,-25.43991 15.59197,0 23.66102,25.43991 39.25299,25.43991 15.59196,0 23.661,-25.43991 39.25298,-25.43991 15.59196,0 23.66097,25.43991 39.25293,25.43991 15.59198,0 23.66102,-25.43991 39.25299,-25.43991 15.59196,0 23.66101,25.43991 39.25298,25.43991 15.59196,0 23.66099,-25.43991 39.25295,-25.43991 15.59196,0 23.66097,25.43991 39.25295,25.43991 15.59197,0 39.25297,-25.43991 39.25297,-25.43991 V 1114.8681 H 7.8409827 Z"
       sodipodi:nodetypes="cssssssssssssssscccc" />
    <path
       id="path6666"
       style="fill:#611f61;fill-opacity:1;stroke-width:16.4569;stroke-linecap:round;stroke-linejoin:round"
       d="m 7.8409827,526.55984 c 0,0 23.6610013,25.43991 39.2529663,25.43991 15.591964,0 23.661012,-25.43991 39.252977,-25.43991 15.591964,0 23.660984,25.43991 39.252954,25.43991 15.59196,0 23.66102,-25.43991 39.25298,-25.43991 15.59193,0 23.66099,25.43991 39.25295,25.43991 15.59197,0 23.66101,-25.43991 39.25297,-25.43991 15.59196,0 23.66099,25.43991 39.25295,25.43991 15.59197,0 23.66102,-25.43991 39.25295,-25.43991 15.59197,0 23.66102,25.43991 39.25299,25.43991 15.59196,0 23.661,-25.43991 39.25298,-25.43991 15.59196,0 23.66097,25.43991 39.25293,25.43991 15.59198,0 23.66102,-25.43991 39.25299,-25.43991 15.59196,0 23.66101,25.43991 39.25298,25.43991 15.59196,0 23.66099,-25.43991 39.25295,-25.43991 15.59196,0 23.66097,25.43991 39.25295,25.43991 15.59197,0 39.25297,-25.43991 39.25297,-25.43991 V 1154.6654 H 7.8409827 Z"
       sodipodi:nodetypes="cssssssssssssssscccc" />
    <path
       id="path6670"
       style="fill:#5d235d;fill-opacity:1;stroke-width:16.4569;stroke-linecap:round;stroke-linejoin:round"
       d="m 7.8409827,559.85186 c 0,0 23.6610013,25.43991 39.2529663,25.43991 15.591964,0 23.661012,-25.43991 39.252977,-25.43991 15.591964,0 23.660984,25.43991 39.252954,25.43991 15.59196,0 23.66102,-25.43991 39.25298,-25.43991 15.59193,0 23.66099,25.43991 39.25295,25.43991 15.59197,0 23.66101,-25.43991 39.25297,-25.43991 15.59196,0 23.66099,25.43991 39.25295,25.43991 15.59197,0 23.66102,-25.43991 39.25295,-25.43991 15.59197,0 23.66102,25.43991 39.25299,25.43991 15.59196,0 23.661,-25.43991 39.25298,-25.43991 15.59196,0 23.66097,25.43991 39.25293,25.43991 15.59198,0 23.66102,-25.43991 39.25299,-25.43991 15.59196,0 23.66101,25.43991 39.25298,25.43991 15.59196,0 23.66099,-25.43991 39.25295,-25.43991 15.59196,0 23.66097,25.43991 39.25295,25.43991 15.59197,0 39.25297,-25.43991 39.25297,-25.43991 V 1187.9574 H 7.8409827 Z"
       sodipodi:nodetypes="cssssssssssssssscccc" />
    <path
       id="path6672"
       style="fill:#592759;fill-opacity:1;stroke-width:16.4569;stroke-linecap:round;stroke-linejoin:round"
       d="m 7.8409827,590.32424 c 0,0 23.6610013,25.43988 39.2529663,25.43988 15.591964,0 23.661012,-25.43988 39.252977,-25.43988 15.591964,0 23.660984,25.43988 39.252954,25.43988 15.59196,0 23.66102,-25.43988 39.25298,-25.43988 15.59193,0 23.66099,25.43988 39.25295,25.43988 15.59197,0 23.66101,-25.43988 39.25297,-25.43988 15.59196,0 23.66099,25.43988 39.25295,25.43988 15.59197,0 23.66102,-25.43988 39.25295,-25.43988 15.59197,0 23.66102,25.43988 39.25299,25.43988 15.59196,0 23.661,-25.43988 39.25298,-25.43988 15.59196,0 23.66097,25.43988 39.25293,25.43988 15.59198,0 23.66102,-25.43988 39.25299,-25.43988 15.59196,0 23.66101,25.43988 39.25298,25.43988 15.59196,0 23.66099,-25.43988 39.25295,-25.43988 15.59196,0 23.66097,25.43988 39.25295,25.43988 15.59197,0 39.25297,-25.43988 39.25297,-25.43988 V 1218.4298 H 7.8409827 Z"
       sodipodi:nodetypes="cssssssssssssssscccc" />
    <path
       id="path6674"
       style="fill:#562a56;fill-opacity:1;stroke-width:16.4569;stroke-linecap:round;stroke-linejoin:round"
       d="m 7.8409827,620.91234 c 0,0 23.6610013,25.4399 39.2529663,25.4399 15.591964,0 23.661012,-25.4399 39.252977,-25.4399 15.591964,0 23.660984,25.4399 39.252954,25.4399 15.59196,0 23.66102,-25.4399 39.25298,-25.4399 15.59193,0 23.66099,25.4399 39.25295,25.4399 15.59197,0 23.66101,-25.4399 39.25297,-25.4399 15.59196,0 23.66099,25.4399 39.25295,25.4399 15.59197,0 23.66102,-25.4399 39.25295,-25.4399 15.59197,0 23.66102,25.4399 39.25299,25.4399 15.59196,0 23.661,-25.4399 39.25298,-25.4399 15.59196,0 23.66097,25.4399 39.25293,25.4399 15.59198,0 23.66102,-25.4399 39.25299,-25.4399 15.59196,0 23.66101,25.4399 39.25298,25.4399 15.59196,0 23.66099,-25.4399 39.25295,-25.4399 15.59196,0 23.66097,25.4399 39.25295,25.4399 15.59197,0 39.25297,-25.4399 39.25297,-25.4399 V 1249.0178 H 7.8409827 Z"
       sodipodi:nodetypes="cssssssssssssssscccc" />
    <path
       id="path6676"
       style="fill:#532d53;fill-opacity:1;stroke-width:16.4569;stroke-linecap:round;stroke-linejoin:round"
       d="m 7.8409827,654.0916 c 0,0 23.6610013,25.43998 39.2529663,25.43998 15.591964,0 23.661012,-25.43998 39.252977,-25.43998 15.591964,0 23.660984,25.43998 39.252954,25.43998 15.59196,0 23.66102,-25.43998 39.25298,-25.43998 15.59193,0 23.66099,25.43998 39.25295,25.43998 15.59197,0 23.66101,-25.43998 39.25297,-25.43998 15.59196,0 23.66099,25.43998 39.25295,25.43998 15.59197,0 23.66102,-25.43998 39.25295,-25.43998 15.59197,0 23.66102,25.43998 39.25299,25.43998 15.59196,0 23.661,-25.43998 39.25298,-25.43998 15.59196,0 23.66097,25.43998 39.25293,25.43998 15.59198,0 23.66102,-25.43998 39.25299,-25.43998 15.59196,0 23.66101,25.43998 39.25298,25.43998 15.59196,0 23.66099,-25.43998 39.25295,-25.43998 15.59196,0 23.66097,25.43998 39.25295,25.43998 15.59197,0 39.25297,-25.43998 39.25297,-25.43998 v 628.1057 H 7.8409827 Z"
       sodipodi:nodetypes="cssssssssssssssscccc" />
    <path
       id="path6678"
       style="fill:#503050;fill-opacity:1;stroke-width:16.4569;stroke-linecap:round;stroke-linejoin:round"
       d="m 7.8409827,685.73722 c 0,0 23.6610013,25.43988 39.2529663,25.43988 15.591964,0 23.661012,-25.43988 39.252977,-25.43988 15.591964,0 23.660984,25.43988 39.252954,25.43988 15.59196,0 23.66102,-25.43988 39.25298,-25.43988 15.59193,0 23.66099,25.43988 39.25295,25.43988 15.59197,0 23.66101,-25.43988 39.25297,-25.43988 15.59196,0 23.66099,25.43988 39.25295,25.43988 15.59197,0 23.66102,-25.43988 39.25295,-25.43988 15.59197,0 23.66102,25.43988 39.25299,25.43988 15.59196,0 23.661,-25.43988 39.25298,-25.43988 15.59196,0 23.66097,25.43988 39.25293,25.43988 15.59198,0 23.66102,-25.43988 39.25299,-25.43988 15.59196,0 23.66101,25.43988 39.25298,25.43988 15.59196,0 23.66099,-25.43988 39.25295,-25.43988 15.59196,0 23.66097,25.43988 39.25295,25.43988 15.59197,0 39.25297,-25.43988 39.25297,-25.43988 V 1313.8427 H 7.8409827 Z"
       sodipodi:nodetypes="cssssssssssssssscccc" />
    <path
       id="path6680"
       style="fill:#503050;fill-opacity:1;stroke-width:16.4569;stroke-linecap:round;stroke-linejoin:round"
       d="m 7.8409827,712.26853 c 0,0 23.6610013,25.43984 39.2529663,25.43984 15.591964,0 23.661012,-25.43984 39.252977,-25.43984 15.591964,0 23.660984,25.43984 39.252954,25.43984 15.59196,0 23.66102,-25.43984 39.25298,-25.43984 15.59193,0 23.66099,25.43984 39.25295,25.43984 15.59197,0 23.66101,-25.43984 39.25297,-25.43984 15.59196,0 23.66099,25.43984 39.25295,25.43984 15.59197,0 23.66102,-25.43984 39.25295,-25.43984 15.59197,0 23.66102,25.43984 39.25299,25.43984 15.59196,0 23.661,-25.43984 39.25298,-25.43984 15.59196,0 23.66097,25.43984 39.25293,25.43984 15.59198,0 23.66102,-25.43984 39.25299,-25.43984 15.59196,0 23.66101,25.43984 39.25298,25.43984 15.59196,0 23.66099,-25.43984 39.25295,-25.43984 15.59196,0 23.66097,25.43984 39.25295,25.43984 15.59197,0 39.25297,-25.43984 39.25297,-25.43984 V 1340.3741 H 7.8409827 Z"
       sodipodi:nodetypes="cssssssssssssssscccc" />
    <path
       id="path6055"
       style="fill:#333333;stroke:#ffffff;stroke-width:19.0867;stroke-linecap:round;stroke-linejoin:round;stroke-dasharray:none;stroke-opacity:1"
       d="m 268.50355,83.386064 c -4.39285,7.67119 -6.87054,16.308443 -10.46662,24.381506 -31.9539,78.88773 -63.85818,157.79531 -95.74152,236.71006 -4.09453,0.80508 0.39704,-4.09156 0.53059,-6.08052 32.44461,-77.97936 64.7757,-156.00962 96.49463,-234.28824 1.33548,-4.398536 4.01657,-8.748402 3.88681,-13.384062 -1.63327,-3.075359 -1.43294,-7.790373 -5.45601,-8.726731 -4.82292,-3.04125 -10.83785,-1.400639 -16.23214,-1.875441 -12.00496,0.06316 -24.0406,-0.194728 -36.02281,0.570831 -3.37265,2.141239 -7.81965,3.383334 -8.9642,7.698676 -16.92749,38.043277 -32.24916,76.779407 -48.3232,115.188217 -24.8446,60.30737 -50.025409,120.47862 -74.313791,181.01295 -1.313832,4.6753 -5.139465,9.42527 -2.866247,14.37601 0.299583,3.3951 1.838823,5.85067 5.144157,6.96847 4.41415,2.78753 10.059115,1.52643 15.039042,2.24965 36.122799,0.72441 72.257499,0.53889 108.386069,0.6977 3.47877,-1.92231 8.31991,-2.42458 9.57888,-6.79068 27.43129,-68.01442 54.92142,-136.00325 82.5247,-203.94869 19.94858,48.51098 40.19183,96.9007 59.84061,145.53307 -2.89292,-0.3216 -2.58714,-4.99857 -4.14905,-7.14641 -14.41126,-35.56157 -28.34545,-71.3402 -44.01633,-106.37172 -1.50332,-3.4308 -3.03372,-6.90005 -6.47964,-8.78282 -2.14978,-3.07626 -5.32589,-2.13344 -8.4448,-1.414 -4.71608,0.18896 -6.6455,5.47132 -8.48053,9.13877 -7.81604,18.1041 -15.24532,36.4362 -21.21369,55.23852 -1.4149,7.47975 3.46451,14.14921 5.63955,21.02149 12.85642,31.96573 25.63361,63.96803 38.84394,95.78963 3.19795,2.59156 5.75956,6.85054 10.4271,6.25469 34.77425,0.80924 69.56966,1.45893 104.35374,0.99476 7.2498,-0.67532 15.96233,0.68832 21.67773,-4.76849 3.09309,-2.61299 1.7042,-7.13899 2.56468,-10.69715 C 425.89502,351.18708 408.55919,309.81822 391.5801,268.31238 367.82548,210.8583 344.32926,153.29386 320.375,95.924333 c -2.65437,-6.623066 -6.50689,-14.390988 -14.43392,-15.431261 -9.88839,-1.097447 -19.88939,-0.334233 -29.82326,-0.568846 -2.53815,1.153934 -5.0763,2.307995 -7.61445,3.462019 z" />
    <path
       id="path4153"
       style="fill:#d700d7;fill-opacity:1;stroke-width:16.4569;stroke-linecap:round;stroke-linejoin:round"
       d="m 560.87586,-13.694595 c 0,0 23.661,25.439903 39.25297,25.439903 15.59196,0 23.66101,-25.439903 39.25297,-25.439903 15.59197,0 23.66099,25.439903 39.25296,25.439903 15.59196,0 23.66102,-25.439903 39.25298,-25.439903 15.59193,0 23.66099,25.439903 39.25295,25.439903 15.59197,0 23.66101,-25.439903 39.25297,-25.439903 15.59196,0 23.66099,25.439903 39.25295,25.439903 15.59197,0 23.66102,-25.439903 39.25295,-25.439903 15.59197,0 23.66102,25.439903 39.25299,25.439903 15.59196,0 23.661,-25.439903 39.25298,-25.439903 15.59196,0 23.66097,25.439903 39.25293,25.439903 15.59194,0 23.66104,-25.439903 39.25294,-25.439903 15.592,0 23.6611,25.439903 39.253,25.439903 15.592,0 23.661,-25.439903 39.253,-25.439903 15.5919,0 23.6609,25.439903 39.2529,25.439903 15.592,0 39.253,-25.439903 39.253,-25.439903 V 614.41095 H 560.87586 Z"
       sodipodi:nodetypes="cssssssssssssssscccc" />
    <path
       id="path4155"
       style="fill:#cc00cc;fill-opacity:1;stroke-width:16.4569;stroke-linecap:round;stroke-linejoin:round"
       d="m 560.87586,41.001699 c 0,0 23.661,25.439904 39.25297,25.439904 15.59196,0 23.66101,-25.439904 39.25297,-25.439904 15.59197,0 23.66099,25.439904 39.25296,25.439904 15.59196,0 23.66102,-25.439904 39.25298,-25.439904 15.59193,0 23.66099,25.439904 39.25295,25.439904 15.59197,0 23.66101,-25.439904 39.25297,-25.439904 15.59196,0 23.66099,25.439904 39.25295,25.439904 15.59197,0 23.66102,-25.439904 39.25295,-25.439904 15.59197,0 23.66102,25.439904 39.25299,25.439904 15.59196,0 23.661,-25.439904 39.25298,-25.439904 15.59196,0 23.66097,25.439904 39.25293,25.439904 15.59194,0 23.66104,-25.439904 39.25294,-25.439904 15.592,0 23.6611,25.439904 39.253,25.439904 15.592,0 23.661,-25.439904 39.253,-25.439904 15.5919,0 23.6609,25.439904 39.2529,25.439904 15.592,0 39.253,-25.439904 39.253,-25.439904 V 669.10721 H 560.87586 Z"
       sodipodi:nodetypes="cssssssssssssssscccc" />
    <path
       id="path4157"
       style="fill:#c000c0;fill-opacity:1;stroke-width:16.4569;stroke-linecap:round;stroke-linejoin:round"
       d="m 560.87586,81.560499 c 0,0 23.661,25.439901 39.25297,25.439901 15.59196,0 23.66101,-25.439901 39.25297,-25.439901 15.59197,0 23.66099,25.439901 39.25296,25.439901 15.59196,0 23.66102,-25.439901 39.25298,-25.439901 15.59193,0 23.66099,25.439901 39.25295,25.439901 15.59197,0 23.66101,-25.439901 39.25297,-25.439901 15.59196,0 23.66099,25.439901 39.25295,25.439901 15.59197,0 23.66102,-25.439901 39.25295,-25.439901 15.59197,0 23.66102,25.439901 39.25299,25.439901 15.59196,0 23.661,-25.439901 39.25298,-25.439901 15.59196,0 23.66097,25.439901 39.25293,25.439901 15.59194,0 23.66104,-25.439901 39.25294,-25.439901 15.592,0 23.6611,25.439901 39.253,25.439901 15.592,0 23.661,-25.439901 39.253,-25.439901 15.5919,0 23.6609,25.439901 39.2529,25.439901 15.592,0 39.253,-25.439901 39.253,-25.439901 V 709.66604 H 560.87586 Z"
       sodipodi:nodetypes="cssssssssssssssscccc" />
    <path
       id="path4159"
       style="fill:#b800b8;fill-opacity:1;stroke-width:16.4569;stroke-linecap:round;stroke-linejoin:round"
       d="m 560.87586,127.86275 c 0,0 23.661,25.43988 39.25297,25.43988 15.59196,0 23.66101,-25.43988 39.25297,-25.43988 15.59197,0 23.66099,25.43988 39.25296,25.43988 15.59196,0 23.66102,-25.43988 39.25298,-25.43988 15.59193,0 23.66099,25.43988 39.25295,25.43988 15.59197,0 23.66101,-25.43988 39.25297,-25.43988 15.59196,0 23.66099,25.43988 39.25295,25.43988 15.59197,0 23.66102,-25.43988 39.25295,-25.43988 15.59197,0 23.66102,25.43988 39.25299,25.43988 15.59196,0 23.661,-25.43988 39.25298,-25.43988 15.59196,0 23.66097,25.43988 39.25293,25.43988 15.59194,0 23.66104,-25.43988 39.25294,-25.43988 15.592,0 23.6611,25.43988 39.253,25.43988 15.592,0 23.661,-25.43988 39.253,-25.43988 15.5919,0 23.6609,25.43988 39.2529,25.43988 15.592,0 39.253,-25.43988 39.253,-25.43988 v 628.1056 H 560.87586 Z"
       sodipodi:nodetypes="cssssssssssssssscccc" />
    <path
       id="path4161"
       style="fill:#a500a5;fill-opacity:1;stroke-width:16.4569;stroke-linecap:round;stroke-linejoin:round"
       d="m 560.87586,176.37603 c 0,0 23.661,25.43991 39.25297,25.43991 15.59196,0 23.66101,-25.43991 39.25297,-25.43991 15.59197,0 23.66099,25.43991 39.25296,25.43991 15.59196,0 23.66102,-25.43991 39.25298,-25.43991 15.59193,0 23.66099,25.43991 39.25295,25.43991 15.59197,0 23.66101,-25.43991 39.25297,-25.43991 15.59196,0 23.66099,25.43991 39.25295,25.43991 15.59197,0 23.66102,-25.43991 39.25295,-25.43991 15.59197,0 23.66102,25.43991 39.25299,25.43991 15.59196,0 23.661,-25.43991 39.25298,-25.43991 15.59196,0 23.66097,25.43991 39.25293,25.43991 15.59194,0 23.66104,-25.43991 39.25294,-25.43991 15.592,0 23.6611,25.43991 39.253,25.43991 15.592,0 23.661,-25.43991 39.253,-25.43991 15.5919,0 23.6609,25.43991 39.2529,25.43991 15.592,0 39.253,-25.43991 39.253,-25.43991 v 628.1055 H 560.87586 Z"
       sodipodi:nodetypes="cssssssssssssssscccc" />
    <path
       id="path4163"
       style="fill:#9b009b;fill-opacity:1;stroke-width:16.4569;stroke-linecap:round;stroke-linejoin:round"
       d="m 560.87586,226.52564 c 0,0 23.661,25.43989 39.25297,25.43989 15.59196,0 23.66101,-25.43989 39.25297,-25.43989 15.59197,0 23.66099,25.43989 39.25296,25.43989 15.59196,0 23.66102,-25.43989 39.25298,-25.43989 15.59193,0 23.66099,25.43989 39.25295,25.43989 15.59197,0 23.66101,-25.43989 39.25297,-25.43989 15.59196,0 23.66099,25.43989 39.25295,25.43989 15.59197,0 23.66102,-25.43989 39.25295,-25.43989 15.59197,0 23.66102,25.43989 39.25299,25.43989 15.59196,0 23.661,-25.43989 39.25298,-25.43989 15.59196,0 23.66097,25.43989 39.25293,25.43989 15.59194,0 23.66104,-25.43989 39.25294,-25.43989 15.592,0 23.6611,25.43989 39.253,25.43989 15.592,0 23.661,-25.43989 39.253,-25.43989 15.5919,0 23.6609,25.43989 39.2529,25.43989 15.592,0 39.253,-25.43989 39.253,-25.43989 V 854.63115 H 560.87586 Z"
       sodipodi:nodetypes="cssssssssssssssscccc" />
    <path
       id="path4165"
       style="fill:#8f008f;fill-opacity:1;stroke-width:16.4569;stroke-linecap:round;stroke-linejoin:round"
       d="m 560.87586,270.73097 c 0,0 23.661,25.43991 39.25297,25.43991 15.59196,0 23.66101,-25.43991 39.25297,-25.43991 15.59197,0 23.66099,25.43991 39.25296,25.43991 15.59196,0 23.66102,-25.43991 39.25298,-25.43991 15.59193,0 23.66099,25.43991 39.25295,25.43991 15.59197,0 23.66101,-25.43991 39.25297,-25.43991 15.59196,0 23.66099,25.43991 39.25295,25.43991 15.59197,0 23.66102,-25.43991 39.25295,-25.43991 15.59197,0 23.66102,25.43991 39.25299,25.43991 15.59196,0 23.661,-25.43991 39.25298,-25.43991 15.59196,0 23.66097,25.43991 39.25293,25.43991 15.59194,0 23.66104,-25.43991 39.25294,-25.43991 15.592,0 23.6611,25.43991 39.253,25.43991 15.592,0 23.661,-25.43991 39.253,-25.43991 15.5919,0 23.6609,25.43991 39.2529,25.43991 15.592,0 39.253,-25.43991 39.253,-25.43991 V 898.83644 H 560.87586 Z"
       sodipodi:nodetypes="cssssssssssssssscccc" />
    <path
       id="path4167"
       style="fill:#800080;stroke-width:16.4569;stroke-linecap:round;stroke-linejoin:round"
       d="m 560.87586,315.87205 c 0,0 23.661,25.43991 39.25297,25.43991 15.59196,0 23.66101,-25.43991 39.25297,-25.43991 15.59197,0 23.66099,25.43991 39.25296,25.43991 15.59196,0 23.66102,-25.43991 39.25298,-25.43991 15.59193,0 23.66099,25.43991 39.25295,25.43991 15.59197,0 23.66101,-25.43991 39.25297,-25.43991 15.59196,0 23.66099,25.43991 39.25295,25.43991 15.59197,0 23.66102,-25.43991 39.25295,-25.43991 15.59197,0 23.66102,25.43991 39.25299,25.43991 15.59196,0 23.661,-25.43991 39.25298,-25.43991 15.59196,0 23.66097,25.43991 39.25293,25.43991 15.59194,0 23.66104,-25.43991 39.25294,-25.43991 15.592,0 23.6611,25.43991 39.253,25.43991 15.592,0 23.661,-25.43991 39.253,-25.43991 15.5919,0 23.6609,25.43991 39.2529,25.43991 15.592,0 39.253,-25.43991 39.253,-25.43991 V 943.97771 H 560.87586 Z"
       sodipodi:nodetypes="cssssssssssssssscccc" />
    <path
       id="path4169"
       style="fill:#780878;fill-opacity:1;stroke-width:16.4569;stroke-linecap:round;stroke-linejoin:round"
       d="m 560.87586,354.77307 c 0,0 23.661,25.43991 39.25297,25.43991 15.59196,0 23.66101,-25.43991 39.25297,-25.43991 15.59197,0 23.66099,25.43991 39.25296,25.43991 15.59196,0 23.66102,-25.43991 39.25298,-25.43991 15.59193,0 23.66099,25.43991 39.25295,25.43991 15.59197,0 23.66101,-25.43991 39.25297,-25.43991 15.59196,0 23.66099,25.43991 39.25295,25.43991 15.59197,0 23.66102,-25.43991 39.25295,-25.43991 15.59197,0 23.66102,25.43991 39.25299,25.43991 15.59196,0 23.661,-25.43991 39.25298,-25.43991 15.59196,0 23.66097,25.43991 39.25293,25.43991 15.59194,0 23.66104,-25.43991 39.25294,-25.43991 15.592,0 23.6611,25.43991 39.253,25.43991 15.592,0 23.661,-25.43991 39.253,-25.43991 15.5919,0 23.6609,25.43991 39.2529,25.43991 15.592,0 39.253,-25.43991 39.253,-25.43991 V 982.87856 H 560.87586 Z"
       sodipodi:nodetypes="cssssssssssssssscccc" />
    <path
       id="path4171"
       style="fill:#6e126e;fill-opacity:1;stroke-width:16.4569;stroke-linecap:round;stroke-linejoin:round"
       d="m 560.87586,399.78271 c 0,0 23.661,25.43991 39.25297,25.43991 15.59196,0 23.66101,-25.43991 39.25297,-25.43991 15.59197,0 23.66099,25.43991 39.25296,25.43991 15.59196,0 23.66102,-25.43991 39.25298,-25.43991 15.59193,0 23.66099,25.43991 39.25295,25.43991 15.59197,0 23.66101,-25.43991 39.25297,-25.43991 15.59196,0 23.66099,25.43991 39.25295,25.43991 15.59197,0 23.66102,-25.43991 39.25295,-25.43991 15.59197,0 23.66102,25.43991 39.25299,25.43991 15.59196,0 23.661,-25.43991 39.25298,-25.43991 15.59196,0 23.66097,25.43991 39.25293,25.43991 15.59194,0 23.66104,-25.43991 39.25294,-25.43991 15.592,0 23.6611,25.43991 39.253,25.43991 15.592,0 23.661,-25.43991 39.253,-25.43991 15.5919,0 23.6609,25.43991 39.2529,25.43991 15.592,0 39.253,-25.43991 39.253,-25.43991 V 1027.8882 H 560.87586 Z"
       sodipodi:nodetypes="cssssssssssssssscccc" />
    <path
       id="path4173"
       style="fill:#691769;fill-opacity:1;stroke-width:16.4569;stroke-linecap:round;stroke-linejoin:round"
       d="m 560.87586,442.45895 c 0,0 23.661,25.43991 39.25297,25.43991 15.59196,0 23.66101,-25.43991 39.25297,-25.43991 15.59197,0 23.66099,25.43991 39.25296,25.43991 15.59196,0 23.66102,-25.43991 39.25298,-25.43991 15.59193,0 23.66099,25.43991 39.25295,25.43991 15.59197,0 23.66101,-25.43991 39.25297,-25.43991 15.59196,0 23.66099,25.43991 39.25295,25.43991 15.59197,0 23.66102,-25.43991 39.25295,-25.43991 15.59197,0 23.66102,25.43991 39.25299,25.43991 15.59196,0 23.661,-25.43991 39.25298,-25.43991 15.59196,0 23.66097,25.43991 39.25293,25.43991 15.59194,0 23.66104,-25.43991 39.25294,-25.43991 15.592,0 23.6611,25.43991 39.253,25.43991 15.592,0 23.661,-25.43991 39.253,-25.43991 15.5919,0 23.6609,25.43991 39.2529,25.43991 15.592,0 39.253,-25.43991 39.253,-25.43991 V 1070.5644 H 560.87586 Z"
       sodipodi:nodetypes="cssssssssssssssscccc" />
    <path
       id="path4175"
       style="fill:#651b65;fill-opacity:1;stroke-width:16.4569;stroke-linecap:round;stroke-linejoin:round"
       d="m 560.87586,486.76253 c 0,0 23.661,25.43991 39.25297,25.43991 15.59196,0 23.66101,-25.43991 39.25297,-25.43991 15.59197,0 23.66099,25.43991 39.25296,25.43991 15.59196,0 23.66102,-25.43991 39.25298,-25.43991 15.59193,0 23.66099,25.43991 39.25295,25.43991 15.59197,0 23.66101,-25.43991 39.25297,-25.43991 15.59196,0 23.66099,25.43991 39.25295,25.43991 15.59197,0 23.66102,-25.43991 39.25295,-25.43991 15.59197,0 23.66102,25.43991 39.25299,25.43991 15.59196,0 23.661,-25.43991 39.25298,-25.43991 15.59196,0 23.66097,25.43991 39.25293,25.43991 15.59194,0 23.66104,-25.43991 39.25294,-25.43991 15.592,0 23.6611,25.43991 39.253,25.43991 15.592,0 23.661,-25.43991 39.253,-25.43991 15.5919,0 23.6609,25.43991 39.2529,25.43991 15.592,0 39.253,-25.43991 39.253,-25.43991 V 1114.8681 H 560.87586 Z"
       sodipodi:nodetypes="cssssssssssssssscccc" />
    <path
       id="path4177"
       style="fill:#611f61;fill-opacity:1;stroke-width:16.4569;stroke-linecap:round;stroke-linejoin:round"
       d="m 560.87586,526.55984 c 0,0 23.661,25.43991 39.25297,25.43991 15.59196,0 23.66101,-25.43991 39.25297,-25.43991 15.59197,0 23.66099,25.43991 39.25296,25.43991 15.59196,0 23.66102,-25.43991 39.25298,-25.43991 15.59193,0 23.66099,25.43991 39.25295,25.43991 15.59197,0 23.66101,-25.43991 39.25297,-25.43991 15.59196,0 23.66099,25.43991 39.25295,25.43991 15.59197,0 23.66102,-25.43991 39.25295,-25.43991 15.59197,0 23.66102,25.43991 39.25299,25.43991 15.59196,0 23.661,-25.43991 39.25298,-25.43991 15.59196,0 23.66097,25.43991 39.25293,25.43991 15.59194,0 23.66104,-25.43991 39.25294,-25.43991 15.592,0 23.6611,25.43991 39.253,25.43991 15.592,0 23.661,-25.43991 39.253,-25.43991 15.5919,0 23.6609,25.43991 39.2529,25.43991 15.592,0 39.253,-25.43991 39.253,-25.43991 V 1154.6654 H 560.87586 Z"
       sodipodi:nodetypes="cssssssssssssssscccc" />
    <path
       id="path4179"
       style="fill:#5d235d;fill-opacity:1;stroke-width:16.4569;stroke-linecap:round;stroke-linejoin:round"
       d="m 560.87586,559.85186 c 0,0 23.661,25.43991 39.25297,25.43991 15.59196,0 23.66101,-25.43991 39.25297,-25.43991 15.59197,0 23.66099,25.43991 39.25296,25.43991 15.59196,0 23.66102,-25.43991 39.25298,-25.43991 15.59193,0 23.66099,25.43991 39.25295,25.43991 15.59197,0 23.66101,-25.43991 39.25297,-25.43991 15.59196,0 23.66099,25.43991 39.25295,25.43991 15.59197,0 23.66102,-25.43991 39.25295,-25.43991 15.59197,0 23.66102,25.43991 39.25299,25.43991 15.59196,0 23.661,-25.43991 39.25298,-25.43991 15.59196,0 23.66097,25.43991 39.25293,25.43991 15.59194,0 23.66104,-25.43991 39.25294,-25.43991 15.592,0 23.6611,25.43991 39.253,25.43991 15.592,0 23.661,-25.43991 39.253,-25.43991 15.5919,0 23.6609,25.43991 39.2529,25.43991 15.592,0 39.253,-25.43991 39.253,-25.43991 V 1187.9574 H 560.87586 Z"
       sodipodi:nodetypes="cssssssssssssssscccc" />
    <path
       id="path4181"
       style="fill:#592759;fill-opacity:1;stroke-width:16.4569;stroke-linecap:round;stroke-linejoin:round"
       d="m 560.87586,590.32424 c 0,0 23.661,25.43988 39.25297,25.43988 15.59196,0 23.66101,-25.43988 39.25297,-25.43988 15.59197,0 23.66099,25.43988 39.25296,25.43988 15.59196,0 23.66102,-25.43988 39.25298,-25.43988 15.59193,0 23.66099,25.43988 39.25295,25.43988 15.59197,0 23.66101,-25.43988 39.25297,-25.43988 15.59196,0 23.66099,25.43988 39.25295,25.43988 15.59197,0 23.66102,-25.43988 39.25295,-25.43988 15.59197,0 23.66102,25.43988 39.25299,25.43988 15.59196,0 23.661,-25.43988 39.25298,-25.43988 15.59196,0 23.66097,25.43988 39.25293,25.43988 15.59194,0 23.66104,-25.43988 39.25294,-25.43988 15.592,0 23.6611,25.43988 39.253,25.43988 15.592,0 23.661,-25.43988 39.253,-25.43988 15.5919,0 23.6609,25.43988 39.2529,25.43988 15.592,0 39.253,-25.43988 39.253,-25.43988 V 1218.4298 H 560.87586 Z"
       sodipodi:nodetypes="cssssssssssssssscccc" />
    <path
       id="path4183"
       style="fill:#562a56;fill-opacity:1;stroke-width:16.4569;stroke-linecap:round;stroke-linejoin:round"
       d="m 560.87586,620.91234 c 0,0 23.661,25.4399 39.25297,25.4399 15.59196,0 23.66101,-25.4399 39.25297,-25.4399 15.59197,0 23.66099,25.4399 39.25296,25.4399 15.59196,0 23.66102,-25.4399 39.25298,-25.4399 15.59193,0 23.66099,25.4399 39.25295,25.4399 15.59197,0 23.66101,-25.4399 39.25297,-25.4399 15.59196,0 23.66099,25.4399 39.25295,25.4399 15.59197,0 23.66102,-25.4399 39.25295,-25.4399 15.59197,0 23.66102,25.4399 39.25299,25.4399 15.59196,0 23.661,-25.4399 39.25298,-25.4399 15.59196,0 23.66097,25.4399 39.25293,25.4399 15.59194,0 23.66104,-25.4399 39.25294,-25.4399 15.592,0 23.6611,25.4399 39.253,25.4399 15.592,0 23.661,-25.4399 39.253,-25.4399 15.5919,0 23.6609,25.4399 39.2529,25.4399 15.592,0 39.253,-25.4399 39.253,-25.4399 V 1249.0178 H 560.87586 Z"
       sodipodi:nodetypes="cssssssssssssssscccc" />
    <path
       id="path4185"
       style="fill:#532d53;fill-opacity:1;stroke-width:16.4569;stroke-linecap:round;stroke-linejoin:round"
       d="m 560.87586,654.0916 c 0,0 23.661,25.43998 39.25297,25.43998 15.59196,0 23.66101,-25.43998 39.25297,-25.43998 15.59197,0 23.66099,25.43998 39.25296,25.43998 15.59196,0 23.66102,-25.43998 39.25298,-25.43998 15.59193,0 23.66099,25.43998 39.25295,25.43998 15.59197,0 23.66101,-25.43998 39.25297,-25.43998 15.59196,0 23.66099,25.43998 39.25295,25.43998 15.59197,0 23.66102,-25.43998 39.25295,-25.43998 15.59197,0 23.66102,25.43998 39.25299,25.43998 15.59196,0 23.661,-25.43998 39.25298,-25.43998 15.59196,0 23.66097,25.43998 39.25293,25.43998 15.59194,0 23.66104,-25.43998 39.25294,-25.43998 15.592,0 23.6611,25.43998 39.253,25.43998 15.592,0 23.661,-25.43998 39.253,-25.43998 15.5919,0 23.6609,25.43998 39.2529,25.43998 15.592,0 39.253,-25.43998 39.253,-25.43998 v 628.1057 H 560.87586 Z"
       sodipodi:nodetypes="cssssssssssssssscccc" />
    <path
       id="path4187"
       style="fill:#503050;fill-opacity:1;stroke-width:16.4569;stroke-linecap:round;stroke-linejoin:round"
       d="m 560.87586,685.73722 c 0,0 23.661,25.43988 39.25297,25.43988 15.59196,0 23.66101,-25.43988 39.25297,-25.43988 15.59197,0 23.66099,25.43988 39.25296,25.43988 15.59196,0 23.66102,-25.43988 39.25298,-25.43988 15.59193,0 23.66099,25.43988 39.25295,25.43988 15.59197,0 23.66101,-25.43988 39.25297,-25.43988 15.59196,0 23.66099,25.43988 39.25295,25.43988 15.59197,0 23.66102,-25.43988 39.25295,-25.43988 15.59197,0 23.66102,25.43988 39.25299,25.43988 15.59196,0 23.661,-25.43988 39.25298,-25.43988 15.59196,0 23.66097,25.43988 39.25293,25.43988 15.59194,0 23.66104,-25.43988 39.25294,-25.43988 15.592,0 23.6611,25.43988 39.253,25.43988 15.592,0 23.661,-25.43988 39.253,-25.43988 15.5919,0 23.6609,25.43988 39.2529,25.43988 15.592,0 39.253,-25.43988 39.253,-25.43988 V 1313.8427 H 560.87586 Z"
       sodipodi:nodetypes="cssssssssssssssscccc" />
    <path
       id="path4189"
       style="fill:#503050;fill-opacity:1;stroke-width:16.4569;stroke-linecap:round;stroke-linejoin:round"
       d="m 560.87586,712.26853 c 0,0 23.661,25.43984 39.25297,25.43984 15.59196,0 23.66101,-25.43984 39.25297,-25.43984 15.59197,0 23.66099,25.43984 39.25296,25.43984 15.59196,0 23.66102,-25.43984 39.25298,-25.43984 15.59193,0 23.66099,25.43984 39.25295,25.43984 15.59197,0 23.66101,-25.43984 39.25297,-25.43984 15.59196,0 23.66099,25.43984 39.25295,25.43984 15.59197,0 23.66102,-25.43984 39.25295,-25.43984 15.59197,0 23.66102,25.43984 39.25299,25.43984 15.59196,0 23.661,-25.43984 39.25298,-25.43984 15.59196,0 23.66097,25.43984 39.25293,25.43984 15.59194,0 23.66104,-25.43984 39.25294,-25.43984 15.592,0 23.6611,25.43984 39.253,25.43984 15.592,0 23.661,-25.43984 39.253,-25.43984 15.5919,0 23.6609,25.43984 39.2529,25.43984 15.592,0 39.253,-25.43984 39.253,-25.43984 V 1340.3741 H 560.87586 Z"
       sodipodi:nodetypes="cssssssssssssssscccc" />
    <path
       id="path179"
       style="fill:#333333;fill-opacity:1;stroke-width:0.504358"
       d="m 704.4603,353.77946 -2.27822,5.5993 c -1.25233,3.07945 -6.2272,15.36901 -11.05657,27.31128 l -8.77969,21.71363 h -2.42238 c -1.33227,0 -2.314,-0.18431 -2.18121,-0.40949 0.47899,-0.81047 22.21884,-53.54587 22.21884,-53.89722 0,-0.19869 -2.25915,-0.28766 -5.02003,-0.20103 l -5.01969,0.15621 -13.0033,31.40969 c -7.1514,17.27497 -13.00498,31.59389 -13.00665,31.81917 -0.002,0.22545 5.589,0.4058 12.42363,0.39908 l 12.42731,-0.01 8.42748,-20.88426 c 4.63503,-11.48629 8.89075,-21.9843 9.4567,-23.32908 l 1.0289,-2.44482 7.33804,17.74015 c 4.03629,9.75694 7.48488,18.18492 7.66216,18.7292 0.28432,0.86707 0.0335,0.96805 -2.00393,0.81897 l -2.32671,-0.16992 -5.1953,-12.9442 c -2.85721,-7.11915 -5.35786,-12.84208 -5.55755,-12.71865 -0.2007,0.12342 -1.38981,2.89096 -2.64448,6.1511 l -2.28156,5.92897 4.61195,11.43468 4.61195,11.43458 12.67015,0.14751 c 10.0628,0.1164 12.61262,0.003 12.39253,-0.54659 -0.15387,-0.38112 -5.86061,-14.21255 -12.68588,-30.73643 -6.82493,-16.52384 -12.62165,-30.59658 -12.88154,-31.27258 -0.41644,-1.08245 -0.85764,-1.22815 -3.69947,-1.22848 z m 130.79834,5.54618 -11.47469,0.01 -7.78024,19.28271 c -4.2798,10.60545 -8.20872,20.29847 -8.73119,21.5401 l -0.94928,2.2575 -6.77577,-16.37984 c -3.72655,-9.00876 -6.91023,-16.78993 -7.07413,-17.29251 -0.2609,-0.80033 -0.0335,-0.89422 1.84973,-0.75651 l 2.14809,0.1562 4.79592,11.9517 c 2.63813,6.5732 4.94812,11.85748 5.13242,11.74352 0.18397,-0.11373 1.2831,-2.66903 2.44144,-5.67914 l 2.10662,-5.4727 -4.25806,-10.55838 -4.25806,-10.55838 -11.69845,-0.13547 c -9.29113,-0.1077 -11.64661,-0.003 -11.44324,0.50318 0.14048,0.35195 5.41238,13.12338 11.71384,28.38011 6.30146,15.25673 11.65263,28.25047 11.89279,28.87459 0.38433,0.99946 0.79241,1.13479 3.41649,1.13479 h 2.9793 l 2.10127,-5.17071 c 1.15633,-2.8433 5.75055,-14.19048 10.20964,-25.21691 l 8.10837,-20.04793 h 2.2364 c 1.23026,0 2.13572,0.17025 2.01296,0.37824 -0.44219,0.74832 -20.51494,49.43797 -20.51494,49.76232 0,0.18364 2.08554,0.26726 4.63469,0.18732 l 4.6347,-0.14584 12.00552,-28.99955 c 6.60316,-15.95023 12.00752,-29.17149 12.00886,-29.37954 0.002,-0.20805 -5.16018,-0.37289 -11.471,-0.36787 z m 90.64982,8.47554 c -4.23565,0 -9.14161,1.20614 -11.43287,2.81096 -1.446,1.01284 -1.8116,0.90336 -1.8116,-0.54137 v -1.25969 h -6.3038 -6.30547 v 24.46039 24.4621 h 6.30547 6.3038 v -17.52675 l 0.003,-17.52671 1.72128,-1.17122 c 6.12853,-4.17313 14.56671,-3.24071 17.43798,1.92773 1.26002,2.26805 1.25969,2.28116 1.4179,18.2833 l 0.15721,16.01365 h 6.30547 6.30581 l -0.10369,-17.74885 -0.10704,-17.74882 2.5923,-1.46446 c 4.38182,-2.47546 10.60936,-2.3894 13.89171,0.19267 0.73755,0.58007 1.84571,1.99834 2.46218,3.15103 1.07806,2.01637 1.12623,2.69288 1.27876,17.85642 l 0.15721,15.76211 h 6.33156 6.32989 L 978.598,400.96344 c -0.26091,-17.63074 -0.53318,-19.95819 -2.87327,-24.54542 -2.85454,-5.59498 -9.13292,-8.61677 -17.90526,-8.61677 -4.71865,0 -8.87636,1.28043 -12.91466,3.97695 l -3.12146,2.08565 -1.27006,-1.27012 c -3.22114,-3.22094 -8.01037,-4.79248 -14.61019,-4.79248 z m -165.88835,0.007 c -14.68044,-0.0234 -25.17808,10.69533 -25.18376,25.7149 -0.003,6.91287 2.39026,12.91824 7.04636,17.67596 3.20241,3.27235 8.81215,6.26892 13.11436,7.00653 3.08533,0.52903 9.13392,0.25957 12.60927,-0.56214 4.04599,-0.95688 9.26337,-3.7678 12.00385,-6.46519 l 2.61471,-2.57327 -3.14923,-2.57842 c -1.73199,-1.41797 -3.54927,-2.9214 -4.03963,-3.34011 -0.80646,-0.68905 -1.02221,-0.64062 -2.26952,0.50488 -3.7018,3.39975 -6.64297,4.54264 -11.68608,4.54264 -5.60505,0 -10.40933,-2.79353 -12.60593,-7.33099 -2.00761,-4.14721 -3.31914,-3.85376 17.18677,-3.85376 h 18.23105 l -0.29101,-4.91744 c -0.86833,-14.76941 -9.81026,-23.80174 -23.58255,-23.82359 z m 87.01893,1.00294 0.16056,17.77835 c 0.15721,17.23303 0.19735,17.86823 1.33261,20.6951 1.7932,4.46631 3.93996,6.93385 7.66584,8.81278 1.79086,0.90306 4.50391,1.8405 6.02952,2.08394 5.91947,0.94437 11.14186,0.30606 16.01371,-1.95724 l 3.15123,-1.46446 v 1.48698 1.48704 h 6.30548 6.3038 v -24.46213 -24.46036 h -6.29678 -6.29878 l -0.13045,17.50939 -0.1338,17.51109 -2.01798,1.15041 c -2.80102,1.59679 -5.35318,2.22272 -9.06267,2.22272 -3.68441,0 -6.03755,-0.86529 -7.88962,-2.90117 -2.47757,-2.72318 -2.64515,-3.91129 -2.85253,-20.23702 l -0.19401,-15.25542 h -6.04356 z m -86.87845,8.97935 c 3.11979,0.01 6.31718,0.90396 8.12945,2.51253 1.31454,1.16703 3.33854,5.58297 3.34523,7.29459 v 1.38636 h -12.10452 c -13.37626,0 -12.81599,0.16022 -11.39642,-3.2378 1.06368,-2.5456 4.30957,-5.87803 6.80521,-6.98569 1.50018,-0.66594 3.34389,-0.97654 5.2157,-0.96999 z"
       sodipodi:nodetypes="ccccscsccscccccccscccssccccsscscscccccscccscccccssssccccscsccsccssscccccccccccccccccsssccccsssccsscscsscccssssscccccsssccccccccccccsssccccssccssssscc" />
  </g>
</svg>
