<?xml version="1.0" encoding="UTF-8" standalone="no"?>
<!-- Created with Inkscape (http://www.inkscape.org/) -->

<svg
   width="23.84mm"
   height="21.104mm"
   viewBox="0 0 23.840001 21.104"
   version="1.1"
   id="svg2489"
   inkscape:version="1.2.2 (732a01da63, 2022-12-09, custom)"
   sodipodi:docname="logo4.svg"
   xmlns:inkscape="http://www.inkscape.org/namespaces/inkscape"
   xmlns:sodipodi="http://sodipodi.sourceforge.net/DTD/sodipodi-0.dtd"
   xmlns="http://www.w3.org/2000/svg"
   xmlns:svg="http://www.w3.org/2000/svg">
  <sodipodi:namedview
     id="namedview2491"
     pagecolor="#ffffff"
     bordercolor="#666666"
     borderopacity="1.0"
     inkscape:showpageshadow="2"
     inkscape:pageopacity="0.0"
     inkscape:pagecheckerboard="0"
     inkscape:deskcolor="#d1d1d1"
     inkscape:document-units="mm"
     showgrid="false"
     inkscape:zoom="5.1754899"
     inkscape:cx="43.570754"
     inkscape:cy="66.563747"
     inkscape:window-width="2486"
     inkscape:window-height="1376"
     inkscape:window-x="74"
     inkscape:window-y="27"
     inkscape:window-maximized="1"
     inkscape:current-layer="layer1">
    <inkscape:grid
       type="xygrid"
       id="grid2506" />
  </sodipodi:namedview>
  <defs
     id="defs2486" />
  <g
     inkscape:label="Layer 1"
     inkscape:groupmode="layer"
     id="layer1"
     transform="translate(-8.9946643,-8.3664776)">
    <path
       d="m 22.117202,9.3664776 -0.68111,1.6739804 c -0.374399,0.92063 -1.861677,4.59476 -3.305439,8.16505 l -2.62485,6.49156 h -0.724165 c -0.39829,0 -0.691851,-0.0551 -0.652059,-0.12243 0.143177,-0.24229 6.642518,-16.0082104 6.642518,-16.1132404 0,-0.0594 -0.675328,-0.086 -1.500729,-0.0601 l -1.50073,0.0467 -3.887469,9.3903204 c -2.138062,5.16456 -3.8880228,9.44539 -3.8885046,9.51274 -5.62e-4,0.0674 1.6708386,0.12132 3.7142086,0.11931 l 3.715252,-0.003 2.51954,-6.24361 c 1.38569,-3.43397 2.657976,-6.57248 2.827162,-6.97452 l 0.307615,-0.73091 2.193764,5.30364 c 1.206677,2.91696 2.237723,5.43661 2.290776,5.59933 0.08452,0.25922 0.01004,0.28941 -0.599148,0.24484 l -0.695635,-0.0508 -1.55312,-3.86983 c -0.854241,-2.12836 -1.601855,-3.8393 -1.661542,-3.8024 -0.05973,0.0369 -0.415476,0.86429 -0.790568,1.83895 l -0.682144,1.77254 1.378823,3.41854 1.378824,3.41851 3.78787,0.0441 c 3.008405,0.0348 3.770644,0.001 3.704873,-0.16341 -0.04557,-0.11394 -1.752128,-4.24902 -3.792538,-9.18904 -2.040409,-4.94002 -3.773425,-9.1472404 -3.851161,-9.3493304 -0.124456,-0.32361 -0.256359,-0.36717 -1.105962,-0.36727 z"
       style="fill:#333333;fill-opacity:1;stroke-width:0.150784"
       id="path2479" />
  </g>
</svg>
