<?xml version="1.0" encoding="UTF-8" standalone="no"?>
<!-- Created with Inkscape (http://www.inkscape.org/) -->

<svg
   width="23.84mm"
   height="21.104mm"
   viewBox="0 0 23.840001 21.104"
   version="1.1"
   id="svg2489"
   inkscape:version="1.2.2 (732a01da63, 2022-12-09, custom)"
   sodipodi:docname="logo5.svg"
   xmlns:inkscape="http://www.inkscape.org/namespaces/inkscape"
   xmlns:sodipodi="http://sodipodi.sourceforge.net/DTD/sodipodi-0.dtd"
   xmlns="http://www.w3.org/2000/svg"
   xmlns:svg="http://www.w3.org/2000/svg">
  <sodipodi:namedview
     id="namedview2491"
     pagecolor="#ffffff"
     bordercolor="#666666"
     borderopacity="1.0"
     inkscape:showpageshadow="2"
     inkscape:pageopacity="0.0"
     inkscape:pagecheckerboard="0"
     inkscape:deskcolor="#d1d1d1"
     inkscape:document-units="mm"
     showgrid="false"
     inkscape:zoom="5.1754899"
     inkscape:cx="66.563747"
     inkscape:cy="46.855468"
     inkscape:window-width="2486"
     inkscape:window-height="1376"
     inkscape:window-x="74"
     inkscape:window-y="27"
     inkscape:window-maximized="1"
     inkscape:current-layer="layer1">
    <inkscape:grid
       type="xygrid"
       id="grid2506" />
  </sodipodi:namedview>
  <defs
     id="defs2486" />
  <g
     inkscape:label="Layer 1"
     inkscape:groupmode="layer"
     id="layer1"
     transform="translate(-8.9946643,-8.3664776)">
    <path
       id="path6055"
       style="fill:#333333;stroke:#ffffff;stroke-width:1.0576;stroke-linecap:round;stroke-linejoin:round;stroke-dasharray:none;stroke-opacity:1"
       d="m 21.5894,10.001571 c -0.243408,0.425064 -0.380693,0.903658 -0.579954,1.35099 -1.770579,4.371204 -3.538417,8.743508 -5.305082,13.116209 -0.226882,0.04461 0.02202,-0.226715 0.02941,-0.336924 1.797772,-4.320871 3.589254,-8.644562 5.346808,-12.982015 0.07403,-0.243725 0.22256,-0.484753 0.215367,-0.741617 -0.09047,-0.170407 -0.07943,-0.4316678 -0.302317,-0.4835516 -0.267241,-0.168517 -0.60053,-0.077607 -0.899427,-0.1039198 -0.665202,0.00349 -1.332106,-0.010788 -1.996038,0.031633 -0.186888,0.1186479 -0.433293,0.1874724 -0.496713,0.4265874 -0.937956,2.107995 -1.786942,4.254381 -2.67761,6.38263 -1.376646,3.341658 -2.771931,6.675774 -4.117757,10.030008 -0.0728,0.25906 -0.284784,0.522258 -0.15882,0.796581 0.01658,0.188124 0.101889,0.324188 0.285041,0.386126 0.244588,0.154458 0.557372,0.08458 0.833315,0.124654 2.001583,0.04014 4.003822,0.02986 6.005719,0.03866 0.192764,-0.106516 0.46101,-0.134347 0.530769,-0.376275 1.519985,-3.768709 3.043219,-7.536 4.572729,-11.300887 1.105363,2.688015 2.227051,5.369311 3.315799,8.064052 -0.160298,-0.01782 -0.143355,-0.276973 -0.229901,-0.395986 -0.798534,-1.970482 -1.570637,-3.952992 -2.438964,-5.894104 -0.0833,-0.190102 -0.168101,-0.382335 -0.359043,-0.48666 -0.119121,-0.170457 -0.295106,-0.118215 -0.467929,-0.07835 -0.261318,0.01047 -0.368231,0.303168 -0.469907,0.506383 -0.433093,1.003156 -0.844751,2.018946 -1.175465,3.060791 -0.07842,0.414456 0.191976,0.784014 0.312491,1.16481 0.712381,1.771235 1.420376,3.544497 2.152361,5.307746 0.177201,0.143599 0.31914,0.379591 0.577767,0.346575 1.926862,0.04484 3.854891,0.08084 5.782292,0.05512 0.401715,-0.03742 0.88448,0.03814 1.201173,-0.264224 0.171389,-0.144787 0.09443,-0.395575 0.14211,-0.592734 C 30.310545,24.840547 29.349959,22.54828 28.40914,20.248423 27.092886,17.064867 25.79095,13.875196 24.463638,10.696325 24.31655,10.329338 24.103088,9.8989142 23.66384,9.8412717 23.115926,9.7804597 22.561761,9.8227537 22.011322,9.8097557 21.870681,9.8736977 21.73004,9.9376428 21.5894,10.001588 Z" />
  </g>
</svg>
