<?xml version="1.0" encoding="UTF-8" standalone="no"?>
<!-- Created with Inkscape (http://www.inkscape.org/) -->

<svg
   width="96.156998mm"
   height="21.379999mm"
   viewBox="0 0 95.789924 21.298382"
   version="1.1"
   id="svg2051"
   inkscape:version="1.2.2 (732a01da63, 2022-12-09, custom)"
   sodipodi:docname="logo3.svg"
   xmlns:inkscape="http://www.inkscape.org/namespaces/inkscape"
   xmlns:sodipodi="http://sodipodi.sourceforge.net/DTD/sodipodi-0.dtd"
   xmlns="http://www.w3.org/2000/svg"
   xmlns:svg="http://www.w3.org/2000/svg">
  <sodipodi:namedview
     id="namedview2053"
     pagecolor="#ffffff"
     bordercolor="#666666"
     borderopacity="1.0"
     inkscape:showpageshadow="2"
     inkscape:pageopacity="0.0"
     inkscape:pagecheckerboard="false"
     inkscape:deskcolor="#d1d1d1"
     inkscape:document-units="mm"
     showgrid="false"
     showborder="true"
     inkscape:zoom="2.587745"
     inkscape:cx="178.3406"
     inkscape:cy="53.90794"
     inkscape:window-width="2486"
     inkscape:window-height="1376"
     inkscape:window-x="74"
     inkscape:window-y="27"
     inkscape:window-maximized="1"
     inkscape:current-layer="layer1">
    <inkscape:grid
       type="xygrid"
       id="grid2431"
       originx="-1.0586201"
       originy="-1.0586204" />
  </sodipodi:namedview>
  <defs
     id="defs2048" />
  <g
     inkscape:label="Layer 1"
     inkscape:groupmode="layer"
     id="layer1"
     transform="translate(-0.99999996,-1)">
    <path
       id="path179"
       style="fill:#333333;fill-opacity:1;stroke-width:0.150208"
       d="m 14.072443,1.9961825 -0.67851,1.66759 c -0.37297,0.91712 -1.85457,4.5772191 -3.292821,8.1338795 l -2.6148294,6.46678 h -0.7214 c -0.39677,0 -0.68921,-0.0549 -0.64957,-0.12196 0.14263,-0.24137 6.6171604,-15.9470995 6.6171604,-16.0517295 0,-0.0592 -0.67275,-0.0857 -1.495,-0.0599 l -1.495001,0.0465 -3.8726294,9.3544695 c -2.1299,5.14485 -3.87318,9.40933 -3.87366,9.47643 -5.599e-4,0.0671 1.66446,0.12085 3.70003,0.11885 l 3.7010694,-0.003 2.509921,-6.21977 c 1.3804,-3.42086 2.64783,-6.5473904 2.81637,-6.9478999 l 0.30644,-0.72812 2.18539,5.2833999 c 1.20207,2.90582 2.22918,5.41585 2.28203,5.57795 0.0842,0.25823 0.01,0.28831 -0.59686,0.24391 l -0.69298,-0.0506 -1.54719,-3.85506 c -0.85098,-2.12023 -1.59574,-3.82464 -1.6552,-3.78788 -0.0595,0.0368 -0.41389,0.86099 -0.78755,1.83193 l -0.67954,1.76577 1.37356,3.40549 1.37356,3.40546 3.77341,0.0439 c 2.99692,0.0347 3.75625,0.001 3.69073,-0.16278 -0.0454,-0.11351 -1.74544,-4.2328 -3.77806,-9.15396 -2.03262,-4.9211599 -3.75902,-9.1123195 -3.83646,-9.3136395 -0.12398,-0.32238 -0.25538,-0.36577 -1.10174,-0.36587 z m 38.95454,1.65177 -3.41736,0.003 -2.31718,5.7427991 c -1.27454,3.1585304 -2.44474,6.0453104 -2.60035,6.4151004 l -0.28267,0.67233 -2.01797,-4.87827 c -1.10989,-2.6829904 -2.05805,-5.0003895 -2.10685,-5.1500695 -0.0777,-0.23836 -0.009,-0.26632 0.55087,-0.22531 l 0.63976,0.0465 1.42833,3.5594791 c 0.78572,1.9576304 1.47369,3.5314004 1.52859,3.4974604 0.0549,-0.0339 0.38208,-0.79489 0.72709,-1.69137 l 0.62735,-1.62988 -1.26814,-3.1445099 -1.26814,-3.1445096 -3.48402,-0.0403 c -2.7671,-0.0321 -3.46856,-10e-4 -3.40806,0.14986 0.0419,0.10482 1.61193,3.9084196 3.48867,8.4521995 1.87675,4.54378 3.47041,8.41359 3.54191,8.59947 0.11447,0.29766 0.23605,0.33796 1.01751,0.33796 h 0.88728 l 0.6258,-1.53995 c 0.34437,-0.84679 1.71268,-4.22622 3.04064,-7.51013 l 2.41484,-5.9706995 h 0.66611 c 0.36634,0 0.63605,0.0507 0.59945,0.11265 -0.1317,0.22287 -6.10971,14.7236795 -6.10971,14.8202795 0,0.0547 0.62109,0.0796 1.38028,0.0558 l 1.38028,-0.0434 3.57549,-8.63668 c 1.96658,-4.7503199 3.57608,-8.6878895 3.57653,-8.7498495 5.1e-4,-0.062 -1.53686,-0.11106 -3.41633,-0.10956 z m 26.99748,2.5242 c -1.26151,0 -2.72259,0.35921 -3.40496,0.8371596 -0.43066,0.30164 -0.5395,0.26904 -0.5395,-0.16123 V 6.4729125 h -1.87741 -1.87792 v 7.2848295 7.28533 h 1.87792 1.87741 l 10e-4,-5.21984 0.001,-5.21983 0.51263,-0.34881 c 1.82526,-1.2428504 4.33833,-0.9651504 5.19348,0.57412 0.37521,0.67547 0.3751,0.67938 0.4222,5.44515 l 0.047,4.76921 h 1.87792 1.87792 l -0.031,-5.28598 -0.0315,-5.28598 0.77205,-0.43615 c 1.30493,-0.7372404 3.15962,-0.7116104 4.13721,0.0574 0.21963,0.17276 0.54971,0.59515 0.73329,0.93845 0.32109,0.60052 0.33546,0.80199 0.38086,5.31802 l 0.047,4.69429 h 1.88567 1.88516 l -0.0739,-4.99453 c -0.0777,-5.25081 -0.15879,-5.94397 -0.85576,-7.3101504 -0.85009,-1.6662995 -2.71993,-2.5662491 -5.33249,-2.5662491 -1.40534,0 -2.64363,0.38133 -3.84628,1.1844196 l -0.92965,0.62115 -0.37828,-0.37827 c -0.95928,-0.9592696 -2.38564,-1.4272996 -4.35115,-1.4272996 z m -49.40507,0.002 c -4.37216,-0.007 -7.49862,3.1852891 -7.50032,7.6584395 -8e-4,2.0588 0.71193,3.84733 2.09858,5.26428 0.95373,0.97457 2.62443,1.86701 3.9057,2.08669 0.91896,0.15756 2.72034,0.0773 3.75533,-0.16742 1.20498,-0.28498 2.75886,-1.12213 3.57498,-1.92547 l 0.77876,-0.76637 -0.93793,-0.76791 c -0.51581,-0.4223 -1.05703,-0.87006 -1.20302,-0.99476 -0.24024,-0.20521 -0.30444,-0.19079 -0.67593,0.15037 -1.1025,1.01252 -1.97841,1.35289 -3.48041,1.35289 -1.66932,0 -3.10012,-0.83197 -3.75429,-2.18332 -0.59794,-1.23513 -0.98853,-1.14773 5.11855,-1.14773 h 5.42964 l -0.0863,-1.46452 c -0.25859,-4.3986404 -2.92165,-7.0886695 -7.02334,-7.0951695 z m 25.91606,0.29869 0.0481,5.2947695 c 0.0467,5.13237 0.0588,5.32154 0.39688,6.16344 0.5341,1.33017 1.17345,2.06505 2.28306,2.62464 0.53333,0.26895 1.34138,0.54814 1.79576,0.62064 1.76288,0.28125 3.31824,0.0911 4.76922,-0.58291 l 0.93844,-0.43615 v 0.44286 0.44287 h 1.87792 1.87741 v -7.28534 -7.2848195 h -1.87534 -1.87586 l -0.0393,5.2146695 -0.0398,5.21518 -0.601,0.34261 c -0.83424,0.47556 -1.5943,0.66198 -2.69906,0.66198 -1.09732,0 -1.79811,-0.25771 -2.34973,-0.86403 -0.73786,-0.81103 -0.78776,-1.16487 -0.84956,-6.02702 l -0.0579,-4.5433895 h -1.79989 z m -25.87421,2.6742491 c 0.92911,0.003 1.8814,0.26921 2.42105,0.74828 0.39152,0.3475704 0.99434,1.6627304 0.99632,2.1724804 l 0.002,0.41289 h -3.605 c -3.98371,0 -3.81692,0.0477 -3.39411,-0.96428 0.31677,-0.75814 1.28352,-1.7506104 2.02675,-2.0804904 0.44683,-0.19833 0.99593,-0.29084 1.55339,-0.28888 z"
       sodipodi:nodetypes="ccccscsccscccccccscccssccccsscscscccccscccscccccssssccccscsccsccssscccccccccccccccccsssccccsssccsscscsscccssssscccccsssccccccccccccsssccccssccssssscc" />
  </g>
</svg>
